<?xml version="1.0" encoding="UTF-8"?>
<svg version="1.1" xmlns="http://www.w3.org/2000/svg" width="2143" height="534">
<path d="M0 0 C707.19 0 1414.38 0 2143 0 C2143 176.22 2143 352.44 2143 534 C1435.81 534 728.62 534 0 534 C0 357.78 0 181.56 0 0 Z " fill="#39363A" transform="translate(0,0)"/>
<path d="M0 0 C302.28 0 604.56 0 916 0 C911.70329914 7.87728492 907.38117309 15.73282714 903 23.5625 C902.40960937 24.62146484 901.81921875 25.68042969 901.2109375 26.77148438 C898.02693077 32.46272107 894.7745247 38.09910312 891.3984375 43.6784668 C889.21724035 47.29945209 887.10969413 50.96205014 885 54.625 C881.29802425 61.03780024 877.57852349 67.43994438 873.84130859 73.83227539 C865.75048146 87.67196501 857.78015627 101.57751723 849.8671875 115.51953125 C844.95510137 124.16158932 839.98854561 132.7336378 834.7265625 141.16796875 C832.53469313 144.76322959 830.53372866 148.44301899 828.54296875 152.15234375 C823.27386009 161.87685062 817.61772849 171.39906228 812.06982422 180.96630859 C809.34037523 185.67548263 806.62919148 190.3941483 803.9375 195.125 C801.08471263 200.13039771 798.18073058 205.10240387 795.25 210.0625 C788.99900251 220.64719779 782.92693976 231.33386489 776.8515625 242.02001953 C773.03562178 248.73198669 769.17663716 255.41488003 765.25 262.0625 C761.52762908 268.36471066 757.87122345 274.70166455 754.25 281.0625 C749.27612842 289.79724153 744.23232333 298.48933226 739.15917969 307.16674805 C734.96157682 314.34688891 730.7905153 321.54189123 726.63183594 328.74462891 C724.35270963 332.68558247 722.04869059 336.60739123 719.6875 340.5 C717.7968183 343.62057087 716.01489842 346.77976593 714.28515625 349.9921875 C710.87708575 356.26391497 707.32601553 362.4478693 703.75 368.625 C702.76374634 370.33187988 702.76374634 370.33187988 701.75756836 372.07324219 C697.65236478 379.1698461 693.51693128 386.2477726 689.34765625 393.30688477 C686.28433394 398.49857789 683.29291583 403.72898669 680.3125 408.96875 C677.32965773 414.18872398 674.28473865 419.3725978 671.25 424.5625 C665.25475129 434.82110776 659.33340326 445.11962887 653.45458984 455.4453125 C626.71972353 502.39959936 626.71972353 502.39959936 618.640625 515.30859375 C616.39780496 518.98788663 614.34768426 522.75908059 612.32421875 526.5625 C611.88722656 527.366875 611.45023438 528.17125 611 529 C610.6811434 529.86258413 610.3622868 530.72516826 610.03376788 531.6138913 C608 534 608 534 606.08692209 534.45998762 C603.42493658 534.64174627 600.80363262 534.65146029 598.13549519 534.61523914 C597.10550245 534.62100836 596.07550972 534.62677759 595.01430508 534.63272163 C591.52820874 534.64606204 588.04324399 534.62343938 584.5572052 534.60127258 C582.04673465 534.60345093 579.53626519 534.60782506 577.02580184 534.61421841 C571.54978117 534.62309745 566.07411726 534.61634065 560.59813309 534.59602737 C552.455586 534.56590613 544.31321062 534.56434328 536.17061798 534.56873732 C522.47492308 534.57531391 508.77934859 534.55857301 495.08368874 534.52865028 C481.51868915 534.49908884 467.95373968 534.47982536 454.38870811 534.47438622 C453.54601549 534.47404252 452.70332287 534.47369882 451.8350941 534.47334471 C447.55567372 534.47165309 443.27625329 534.47014616 438.99683281 534.46871033 C408.66720659 534.45820172 378.33764592 534.42449669 348.00805664 534.37719727 C318.53898459 534.33129279 289.0699306 534.2959506 259.60083008 534.2746582 C257.74846862 534.27330499 255.89610716 534.27195147 254.0437457 534.27059764 C238.99310027 534.25965415 223.94245434 534.24944112 208.89180828 534.23940522 C139.26114341 534.19244799 69.63064955 534.09210133 0 534 C0 357.78 0 181.56 0 0 Z " fill="#342F2F" transform="translate(0,0)"/>
<path d="M0 0 C1.11287384 0.00205444 2.22574768 0.00410889 3.37234497 0.00622559 C4.65416656 0.00682983 5.93598816 0.00743408 7.25665283 0.00805664 C8.69902661 0.01435172 10.14139925 0.02091243 11.58377075 0.02770996 C13.09914098 0.03151727 14.6145117 0.03513353 16.12988281 0.03857422 C36.25779315 0.09872494 56.38492943 0.3500567 76.51138306 0.58502197 C81.83627757 0.64676138 87.16119709 0.70626582 92.4861145 0.76599121 C102.83379552 0.88236592 113.18144785 1.00110149 123.52908325 1.12145996 C122.13614696 5.4562477 120.53013487 9.13038088 118.21658325 13.05895996 C117.4943874 14.29805311 116.77310002 15.53767602 116.05252075 16.77770996 C115.65258911 17.46349121 115.25265747 18.14927246 114.84060669 18.85583496 C112.30482996 23.23632789 109.82788457 27.65026454 107.34158325 32.05895996 C106.21533785 34.05248157 105.08903491 36.04597067 103.962677 38.03942871 C101.70295242 42.04095747 99.44541361 46.04370968 97.1892395 50.04724121 C91.58553925 59.98476826 85.93932943 69.8937958 80.2048645 79.75646973 C77.41055111 84.57159666 74.69073367 89.41787263 72.05252075 94.32067871 C70.08249818 97.94248945 68.05595029 101.53123586 66.02908325 105.12145996 C63.03126696 110.43535 60.07347079 115.76751953 57.16189575 121.12927246 C51.81476719 130.92807743 46.3606505 140.66720714 40.84793091 150.37365723 C35.11144746 160.47560286 29.49440148 170.63214737 24.01809692 180.87780762 C21.61947851 185.34755637 19.17472804 189.76214193 16.540802 194.09802246 C13.24895923 199.51978661 10.26489306 205.08947619 7.27908325 210.68395996 C2.27439873 219.99503421 -2.92983569 229.14918215 -8.34640503 238.22497559 C-10.16852685 241.29797653 -11.94830168 244.39470588 -13.72091675 247.49645996 C-14.303573 248.51481934 -14.88622925 249.53317871 -15.48654175 250.58239746 C-19.24442057 257.23858747 -22.85814964 263.97589722 -26.47872925 270.70739746 C-32.12846652 281.20761891 -37.8609811 291.64602573 -43.81149292 301.97888184 C-47.91368825 309.11313458 -51.92126849 316.29735767 -55.90841675 323.49645996 C-60.55916286 331.8926903 -65.23584047 340.27248471 -69.97091675 348.62145996 C-74.68241193 356.93023068 -79.34020958 365.26740195 -83.97091675 373.62145996 C-89.14626827 382.95705127 -94.36175423 392.26824822 -99.62496948 401.55456543 C-103.61933016 408.60473118 -107.58108092 415.6726617 -111.53341675 422.74645996 C-116.43328504 431.51443068 -121.37766505 440.25512589 -126.38912964 448.95983887 C-129.28437161 453.99941643 -132.09877231 459.07717739 -134.87277222 464.18444824 C-137.81667302 469.59464174 -140.79838045 474.98388005 -143.78341675 480.37145996 C-144.274897 481.25887375 -144.274897 481.25887375 -144.77630615 482.16421509 C-148.91585001 489.63076066 -153.14047547 497.02705776 -157.60421753 504.30480957 C-160.37132992 508.85211091 -162.7389417 513.53866321 -165.0607605 518.32458496 C-167.82633844 523.80977557 -171.06560272 529.01348892 -174.47091675 534.12145996 C-176.84097481 534.49060345 -176.84097481 534.49060345 -179.87451172 534.48222351 C-181.021586 534.4863475 -182.16866028 534.4904715 -183.35049438 534.49472046 C-184.61500427 534.48393463 -185.87951416 534.4731488 -187.18234253 534.46203613 C-188.52252178 534.46119024 -189.86270242 534.46166426 -191.20288086 534.46336365 C-194.84739535 534.46422653 -198.49161532 534.44655375 -202.13606119 534.42564178 C-205.9423973 534.40692355 -209.74873971 534.40512838 -213.55511475 534.40156555 C-220.7658044 534.39223076 -227.97635806 534.3675977 -235.18698776 534.33751708 C-243.39483944 534.30401757 -251.60269752 534.28749828 -259.81060052 534.27243078 C-276.69745134 534.2410493 -293.58416968 534.18826108 -310.47091675 534.12145996 C-309.51006984 532.19172853 -308.54830556 530.26245386 -307.58615112 528.33337402 C-307.0506665 527.25896057 -306.51518188 526.18454712 -305.96347046 525.07757568 C-304.38596369 521.95320399 -302.72518554 518.90005607 -300.97091675 515.87145996 C-300.65179321 515.31901611 -300.33266968 514.76657227 -300.00387573 514.1973877 C-298.83028726 512.16969507 -297.6504995 510.14567138 -296.47091675 508.12145996 C-295.36800189 506.22174956 -294.26514155 504.32200752 -293.162323 502.42224121 C-287.98611561 493.51823414 -282.80205812 484.62128313 -277.47091675 475.80895996 C-274.50272465 470.90018066 -271.68446322 465.93123064 -268.9670105 460.87927246 C-263.13991966 450.13795096 -256.85901591 439.64017672 -250.68917847 429.09411621 C-246.89952441 422.60513611 -243.18227153 416.08194475 -239.52853394 409.51574707 C-236.66775922 404.40308783 -233.62476634 399.42764941 -230.490448 394.47692871 C-228.25248781 390.75853838 -226.19442585 386.96386167 -224.12838745 383.14807129 C-221.22219301 377.84123781 -218.18738715 372.60888505 -215.15841675 367.37145996 C-214.49978638 366.23055908 -213.84115601 365.0896582 -213.16256714 363.91418457 C-209.01753325 356.74930648 -204.81917253 349.62300672 -200.4982605 342.56286621 C-198.83122492 339.73308134 -197.2423439 336.88704293 -195.677948 334.00036621 C-192.29969186 327.7694075 -188.77182888 321.63026895 -185.22091675 315.49645996 C-184.55379982 314.341944 -183.88672682 313.18740265 -183.21969604 312.03283691 C-179.21674578 305.11270554 -175.18407885 298.21116363 -171.11300659 291.33093262 C-167.79667016 285.71200506 -164.56950232 280.04398657 -161.34591675 274.37145996 C-157.49201311 267.590371 -153.56564773 260.88713206 -149.38497925 254.30114746 C-147.18186179 250.64127478 -145.1509652 246.90563732 -143.11691284 243.14978027 C-140.27888823 237.9283538 -137.37284917 232.74505534 -134.47091675 227.55895996 C-133.88052612 226.49999512 -133.2901355 225.44103027 -132.68185425 224.34997559 C-127.82095044 215.6613777 -122.74202468 207.12871412 -117.47091675 198.68395996 C-114.49090777 193.85273328 -111.69623032 188.96422265 -109.00997925 183.96520996 C-104.04978003 174.80017181 -98.72807214 165.85513484 -93.34591675 156.93395996 C-89.81516038 151.07859951 -86.35811492 145.21555888 -83.13497925 139.18395996 C-76.28526653 126.57791591 -68.97830286 114.22670867 -61.55709839 101.9510498 C-58.55585197 96.97334855 -55.69029784 91.95256838 -52.959198 86.82067871 C-51.05358841 83.36457314 -49.01580005 79.99648159 -46.97091675 76.62145996 C-43.92659496 71.59190087 -41.01681151 66.52344638 -38.2326355 61.34411621 C-29.87415663 46.05421584 -20.96876099 31.05453993 -12.16378784 16.01940918 C-10.94911696 13.9400692 -9.73903853 11.85804389 -8.5319519 9.77429199 C-7.89950562 8.68358398 -7.26705933 7.59287598 -6.615448 6.46911621 C-6.0377063 5.47017334 -5.4599646 4.47123047 -4.86471558 3.4420166 C-2.88243539 0.1416885 -2.88243539 0.1416885 0 0 Z " fill="#393434" transform="translate(918.4709167480469,-0.1214599609375)"/>
<path d="M0 0 C61.05 0 122.1 0 185 0 C179.69365409 10.61269182 174.33379252 21.16091631 168.75 31.625 C168.00230943 33.02983961 167.25467025 34.43470657 166.50708008 35.83959961 C161.81157132 44.65374196 157.0534923 53.43182996 152.24707031 62.18603516 C148.7463219 68.58084772 145.35578705 75.02808625 142 81.5 C136.6487921 91.81776237 131.12174824 102.03074897 125.52636719 112.21777344 C122.88310707 117.03584642 120.25497703 121.86216776 117.625 126.6875 C116.6797548 128.42060963 115.73444458 130.15368379 114.7890625 131.88671875 C114.33160645 132.72614014 113.87415039 133.56556152 113.40283203 134.43041992 C112.44801476 136.17936732 111.49055395 137.92687352 110.53076172 139.6730957 C106.87588587 146.334824 103.35699722 153.05909728 99.875 159.8125 C95.24215684 168.75957071 90.51026443 177.64266468 85.66381836 186.47558594 C81.54689595 193.98240121 77.48032393 201.51558185 73.4375 209.0625 C72.95756088 209.9582222 72.95756088 209.9582222 72.46792603 210.87203979 C67.92598053 219.35350845 63.44363381 227.86464262 58.99853516 236.3972168 C55.17685699 243.71106903 51.23347599 250.95575204 47.26879883 258.19287109 C44.48219867 263.27963022 41.71651088 268.37547789 39 273.5 C35.7376566 279.65263497 32.40481446 285.76548255 29.0625 291.875 C25.13058423 299.06395047 21.24841123 306.27506067 17.43383789 313.52685547 C13.84514896 320.33129903 10.14803805 327.07550394 6.45458984 333.82348633 C2.95599129 340.22414046 -0.49250658 346.6487577 -3.8828125 353.10742188 C-5.84390506 356.83894522 -7.84324319 360.54644225 -9.87109375 364.2421875 C-13.07029036 370.09313806 -16.13235846 376.0104226 -19.1875 381.9375 C-24.14367005 391.51300608 -29.22941384 401.00426891 -34.46484375 410.4296875 C-39.49484757 419.48626474 -44.37775086 428.60451777 -49.125 437.8125 C-53.81829777 446.88113421 -58.6241323 455.87702053 -63.54711914 464.82275391 C-67.15305769 471.39399708 -70.62577402 478.02645179 -74.0625 484.6875 C-78.1925366 492.68461206 -82.54383925 500.50363006 -87.1171875 508.25463867 C-90.8667225 514.6520766 -94.20821579 521.20457428 -97.44140625 527.875 C-99 531 -99 531 -101 534 C-102.88591957 534.36914349 -102.88591957 534.36914349 -105.22671509 534.36076355 C-106.11295059 534.36488754 -106.9991861 534.36901154 -107.91227722 534.3732605 C-108.88691422 534.36247467 -109.86155121 534.35168884 -110.86572266 534.34057617 C-111.89013962 534.34101425 -112.91455658 534.34145233 -113.97001648 534.34190369 C-117.36822331 534.33980766 -120.76594148 534.31643798 -124.1640625 534.29296875 C-126.51532725 534.2873757 -128.8665955 534.28310423 -131.21786499 534.28010559 C-137.41578776 534.26863397 -143.61350066 534.23914676 -149.81134033 534.20599365 C-156.1320105 534.17534271 -162.45271448 534.1616109 -168.7734375 534.14648438 C-181.18238403 534.11427937 -193.59117459 534.06305501 -206 534 C-205.06490662 532.10427975 -204.12681653 530.21003752 -203.1875 528.31640625 C-202.66542969 527.26138916 -202.14335938 526.20637207 -201.60546875 525.11938477 C-199.72220749 521.46025625 -197.63300995 517.96989817 -195.4831543 514.46362305 C-194.008752 512.01453769 -192.62837516 509.53438864 -191.26953125 507.01953125 C-174.53845458 476.19111662 -174.53845458 476.19111662 -166.02734375 462.40625 C-161.46721974 454.74453876 -157.36154622 446.81824473 -153.15600586 438.95825195 C-146.46916117 426.47468524 -139.60697839 414.10410135 -132.59570312 401.80029297 C-124.61767884 387.79969038 -116.73805326 373.74824441 -108.97106934 359.62963867 C-103.99566398 350.58742654 -98.96085114 341.5812197 -93.86547852 332.60595703 C-89.67715152 325.22071471 -85.55109294 317.80208893 -81.4375 310.375 C-76.42792291 301.33305893 -71.35701993 292.33048702 -66.21118164 283.36547852 C-61.38919635 274.95701408 -56.68833981 266.48348153 -52 258 C-41.85992286 239.67065877 -31.57484002 221.42383563 -21.13330078 203.2644043 C-18.23775098 198.21589791 -15.41816018 193.13128972 -12.64038086 188.01708984 C-9.79189434 182.77797742 -6.91735286 177.55320205 -4.04101562 172.3293457 C-3.34624888 171.06674075 -2.65223986 169.80371857 -1.95898438 168.5402832 C1.80805806 161.67571742 5.61166155 154.84881885 9.70019531 148.16821289 C11.65792329 144.90251377 13.45155334 141.55216488 15.26171875 138.203125 C21.19312057 127.27335085 27.30623581 116.44349592 33.4375 105.625 C37.5075176 98.44296516 41.53672078 91.24148457 45.5 84 C49.88809017 75.98318955 54.36567443 68.02025237 58.8762207 60.07177734 C62.8674545 53.02911462 66.80272913 45.95651537 70.72070312 38.8729248 C75.67832017 29.90977854 80.67300826 20.98109695 85.9440918 12.19775391 C88.1480676 8.51584081 90.07221227 4.85557545 92 1 C61.64 1 31.28 1 0 1 C0 0.67 0 0.34 0 0 Z " fill="#262123" transform="translate(950,0)"/>
<path d="M0 0 C1.43352212 0.00015908 2.86704998 0.00585132 4.30053711 0.01586914 C5.43041298 0.01799156 5.43041298 0.01799156 6.58311462 0.02015686 C8.99807646 0.02577163 11.41294687 0.03832656 13.82788086 0.05102539 C15.46134307 0.05603849 17.09480672 0.06060173 18.72827148 0.06469727 C22.74067671 0.07574585 26.75301326 0.09302033 30.76538086 0.11352539 C29.84202455 1.99946929 28.91401647 3.88313602 27.98413086 5.76586914 C27.46786133 6.81508545 26.9515918 7.86430176 26.41967773 8.9453125 C24.39904591 12.81510872 22.09937281 16.43116975 19.67163086 20.05493164 C17.41962853 23.66828784 15.40886717 27.38333134 13.38452148 31.12792969 C10.72809327 36.0262199 7.99841468 40.88268382 5.26538086 45.73852539 C4.72268555 46.71047852 4.17999023 47.68243164 3.62084961 48.68383789 C1.12906043 53.10839911 -1.40119844 57.44253294 -4.26586914 61.63696289 C-7.04685917 65.72302659 -9.40809755 69.96315898 -11.73852539 74.3190918 C-14.16593696 78.8530593 -16.70353272 83.32434924 -19.23461914 87.80102539 C-20.06775635 89.27490723 -20.06775635 89.27490723 -20.91772461 90.77856445 C-26.72236584 101.0182307 -32.66345017 111.17692463 -38.6105957 121.33422852 C-41.44005426 126.17646486 -44.24424722 131.03325846 -47.04931641 135.88964844 C-49.5787601 140.26481505 -52.12104959 144.63211826 -54.67602539 148.99243164 C-60.45442958 158.85721679 -66.18135381 168.73754362 -71.69677734 178.75195312 C-75.59773999 185.81611714 -79.69717064 192.75627282 -83.80834961 199.69946289 C-91.886228 213.37184589 -99.83248496 227.11471514 -107.6184082 240.95532227 C-111.17560822 247.26908034 -114.80581175 253.53340085 -118.49951172 259.76806641 C-121.77795763 265.31097183 -124.98365125 270.89343615 -128.17211914 276.48852539 C-134.25996783 287.17141696 -140.41746364 297.81287531 -146.58911133 308.44750977 C-147.95066115 310.79419823 -149.31162052 313.14122734 -150.67211914 315.48852539 C-151.12264648 316.26583008 -151.57317383 317.04313477 -152.03735352 317.84399414 C-155.48185013 323.7949117 -158.89263448 329.7646491 -162.29711914 335.73852539 C-166.22726333 342.63223103 -170.20496297 349.4941222 -174.24365234 356.32470703 C-178.03563639 362.74929031 -181.76174544 369.21120312 -185.48461914 375.67602539 C-190.40001378 384.20986861 -195.33196438 392.73352876 -200.29711914 401.23852539 C-200.8675293 402.21587646 -201.43793945 403.19322754 -202.02563477 404.20019531 C-204.96950305 409.24177765 -207.91828782 414.28044097 -210.87133789 419.31665039 C-216.48856255 428.90622273 -222.05376719 438.51189742 -227.40966797 448.25 C-232.61982451 457.68449356 -238.11391916 466.95554845 -243.56225586 476.25366211 C-245.96683538 480.3656686 -248.35199032 484.48877366 -250.73461914 488.61352539 C-264.76287725 512.88201897 -264.76287725 512.88201897 -268.58984375 519.18237305 C-270.32013544 522.12225105 -270.32013544 522.12225105 -271.60009766 525.47827148 C-273.16645468 529.01463472 -274.43744265 531.42806627 -277.23461914 534.11352539 C-283.1121005 535.59920714 -288.66760409 535.25476313 -294.67211914 534.86352539 C-296.2780398 534.803273 -297.8841772 534.74853024 -299.49047852 534.69946289 C-303.41057429 534.56775399 -307.32020705 534.36117252 -311.23461914 534.11352539 C-304.9825764 521.47084783 -304.9825764 521.47084783 -301.73461914 515.86352539 C-301.41549561 515.31108154 -301.09637207 514.7586377 -300.76757812 514.18945312 C-299.59398966 512.1617605 -298.41420189 510.13773681 -297.23461914 508.11352539 C-296.13170429 506.21381499 -295.02884394 504.31407295 -293.92602539 502.41430664 C-288.749818 493.51029957 -283.56576052 484.61334856 -278.23461914 475.80102539 C-275.26642704 470.89224609 -272.44816562 465.92329607 -269.73071289 460.87133789 C-263.90362205 450.13001639 -257.6227183 439.63224215 -251.45288086 429.08618164 C-247.66322681 422.59720154 -243.94597392 416.07401018 -240.29223633 409.5078125 C-237.43146161 404.39515326 -234.38846874 399.41971484 -231.25415039 394.46899414 C-229.0161902 390.75060381 -226.95812824 386.9559271 -224.89208984 383.14013672 C-221.9858954 377.83330324 -218.95108954 372.60095048 -215.92211914 367.36352539 C-215.26348877 366.22262451 -214.6048584 365.08172363 -213.92626953 363.90625 C-209.78123565 356.7413719 -205.58287492 349.61507215 -201.26196289 342.55493164 C-199.59492731 339.72514677 -198.00604629 336.87910836 -196.44165039 333.99243164 C-193.06339426 327.76147293 -189.53553128 321.62233437 -185.98461914 315.48852539 C-185.31750221 314.33400943 -184.65042921 313.17946808 -183.98339844 312.02490234 C-179.98044818 305.10477097 -175.94778125 298.20322906 -171.87670898 291.32299805 C-168.56037255 285.70407049 -165.33320471 280.036052 -162.10961914 274.36352539 C-158.2557155 267.58243643 -154.32935012 260.87919749 -150.14868164 254.29321289 C-147.94556418 250.63334021 -145.91466759 246.89770275 -143.88061523 243.1418457 C-141.04259062 237.92041923 -138.13655156 232.73712077 -135.23461914 227.55102539 C-134.64422852 226.49206055 -134.05383789 225.4330957 -133.44555664 224.34204102 C-128.58465283 215.65344313 -123.50572707 207.12077955 -118.23461914 198.67602539 C-115.25461016 193.84479871 -112.45993271 188.95628808 -109.77368164 183.95727539 C-104.81348242 174.79223724 -99.49177453 165.84720027 -94.10961914 156.92602539 C-90.57886278 151.07066494 -87.12181732 145.20762431 -83.89868164 139.17602539 C-77.04896893 126.56998133 -69.74200526 114.2187741 -62.32080078 101.94311523 C-59.31955436 96.96541398 -56.45400023 91.94463381 -53.72290039 86.81274414 C-51.8172908 83.35663857 -49.77950245 79.98854702 -47.73461914 76.61352539 C-44.69029736 71.5839663 -41.7805139 66.51551181 -38.99633789 61.33618164 C-30.63785902 46.04628127 -21.73246339 31.04660536 -12.92749023 16.01147461 C-11.71281935 13.93213463 -10.50274092 11.85010932 -9.2956543 9.76635742 C-8.66320801 8.67564941 -8.03076172 7.58494141 -7.37915039 6.46118164 C-6.80140869 5.46223877 -6.22366699 4.4632959 -5.62841797 3.43408203 C-3.64258802 0.12784387 -3.64258802 0.12784387 0 0 Z " fill="#757171" transform="translate(919.234619140625,-0.113525390625)"/>
<path d="M0 0 C8.56220557 8.5047411 11.68647591 17.51460447 11.93359375 29.484375 C11.68316737 49.61865577 2.14979599 67.62424873 -11.4609375 82.078125 C-23.15799865 93.40662203 -37.63365641 99.68448056 -53.94140625 100.046875 C-63.92436674 99.74618342 -70.69323252 98.49829612 -78.25390625 91.734375 C-79.14078125 90.991875 -80.02765625 90.249375 -80.94140625 89.484375 C-88.68406698 80.27688656 -91.10602882 69.51042953 -90.25390625 57.734375 C-87.82123145 37.23728341 -75.65282096 19.01971318 -60.25390625 5.734375 C-43.74356232 -6.25120963 -17.70144079 -14.86773821 0 0 Z " fill="#3A373A" transform="translate(1823.25390625,212.265625)"/>
<path d="M0 0 C9.72508074 2.23212768 19.51850806 4.07154015 29.33203125 5.86767578 C29.82703125 9.33267578 29.82703125 9.33267578 30.33203125 12.86767578 C31.45738281 12.81546875 31.45738281 12.81546875 32.60546875 12.76220703 C43.67776438 12.46936294 52.04074976 14.25688823 60.33203125 21.86767578 C68.1030032 29.52842118 72.79520589 39.30855204 75.33203125 49.86767578 C75.00203125 50.52767578 74.67203125 51.18767578 74.33203125 51.86767578 C73.43416389 50.3897429 72.53887842 48.9102415 71.64453125 47.43017578 C71.09152344 46.51623047 70.53851562 45.60228516 69.96875 44.66064453 C68.53967185 42.22200282 67.24315848 39.75786657 65.95703125 37.24267578 C61.76462545 29.72296379 56.18121804 24.30981643 47.96875 21.49267578 C39.4691627 19.47795879 31.93303472 20.60554904 24.33203125 24.86767578 C12.38476798 32.89640707 9.19424873 44.56937304 6.33203125 57.86767578 C6.15623535 58.51542969 5.98043945 59.16318359 5.79931641 59.83056641 C1.9821363 76.47139753 6.40693266 96.14100518 14.41796875 110.86767578 C19.02623473 118.09042736 24.8052191 123.85111583 33.33203125 125.86767578 C43.52597236 127.15747521 51.01634324 125.97202638 59.33203125 119.86767578 C62.1172471 117.64571218 64.7728432 115.34620174 67.33203125 112.86767578 C67.33203125 118.55559452 62.0292072 122.84028954 58.33203125 126.86767578 C50.14752517 134.1481733 41.80070807 134.60919169 31.34960938 134.04980469 C21.17156583 133.13102196 14.5256223 126.35348934 7.8046875 119.25439453 C-4.88002732 103.57073755 -6.08681098 79.60066052 -4.359375 60.44580078 C-3.39184067 53.42475523 -1.62941994 46.73705479 0.4296875 39.96142578 C2.25344188 34.61274931 2.25344188 34.61274931 1.20703125 29.36767578 C-3.75110681 22.75682503 -7.5785298 20.87050296 -15.48046875 19.30517578 C-16.43155518 19.10174561 -17.3826416 18.89831543 -18.36254883 18.6887207 C-26.85306192 16.91822318 -35.40910591 15.49621689 -43.9855957 14.21118164 C-44.9468335 14.06302002 -45.90807129 13.9148584 -46.8984375 13.76220703 C-47.74817139 13.63692627 -48.59790527 13.51164551 -49.47338867 13.38256836 C-51.66796875 12.86767578 -51.66796875 12.86767578 -54.66796875 10.86767578 C-44.19976268 11.37112652 -34.05698342 12.59597601 -23.73046875 14.36767578 C-21.70695113 14.70844303 -19.68310107 15.04712095 -17.65899658 15.38438416 C-15.76451981 15.70115995 -13.87100996 16.02370175 -11.97753906 16.34643555 C-9.29957617 16.76820087 -6.66703606 17.07184673 -3.96875 17.30126953 C-0.30685368 17.92964227 0.84839815 18.63705763 3.20703125 21.43017578 C4.22023604 22.60125201 5.2561064 23.75394817 6.33203125 24.86767578 C6.99203125 24.86767578 7.65203125 24.86767578 8.33203125 24.86767578 C7.1775472 20.96019132 6.17131067 17.83186363 3.33203125 14.86767578 C0.46062109 13.83086818 0.46062109 13.83086818 -2.890625 13.30517578 C-4.14407715 13.06750488 -5.3975293 12.82983398 -6.68896484 12.58496094 C-8.03610659 12.34571816 -9.38327503 12.10662572 -10.73046875 11.86767578 C-12.09361293 11.61353026 -13.45640748 11.3575023 -14.81884766 11.09960938 C-16.85529711 10.71422915 -18.89185395 10.32983557 -20.92962646 9.95150757 C-26.49569377 8.91660935 -32.02317383 7.74893284 -37.54296875 6.49267578 C-38.28426025 6.32509766 -39.02555176 6.15751953 -39.78930664 5.98486328 C-41.4162187 5.61549952 -43.04222965 5.24216853 -44.66796875 4.86767578 C-44.66796875 4.53767578 -44.66796875 4.20767578 -44.66796875 3.86767578 C-38.26692714 3.68283186 -32.27645789 4.3717553 -25.96484375 5.40673828 C-24.46452606 5.65174576 -24.46452606 5.65174576 -22.93389893 5.90170288 C-20.83222888 6.24920389 -18.73121971 6.60072329 -16.63085938 6.95605469 C-13.41736944 7.49277588 -10.19953998 7.99458357 -6.98046875 8.49658203 C-4.93323226 8.83948283 -2.88634282 9.18446349 -0.83984375 9.53173828 C0.12060852 9.6757608 1.08106079 9.81978333 2.07061768 9.96817017 C8.77378272 11.16457657 8.77378272 11.16457657 11.78027344 14.95117188 C12.29235352 15.91361816 12.80443359 16.87606445 13.33203125 17.86767578 C14.81703125 18.36267578 14.81703125 18.36267578 16.33203125 18.86767578 C15.34203125 17.19705078 15.34203125 17.19705078 14.33203125 15.49267578 C12.33203125 12.11767578 12.33203125 12.11767578 12.33203125 9.86767578 C10.45644531 9.68011719 10.45644531 9.68011719 8.54296875 9.48876953 C2.970708 8.86781059 -2.52706224 7.92600051 -8.04296875 6.93017578 C-9.02652344 6.76066406 -10.01007813 6.59115234 -11.0234375 6.41650391 C-11.96574219 6.24699219 -12.90804688 6.07748047 -13.87890625 5.90283203 C-14.72759277 5.75209229 -15.5762793 5.60135254 -16.45068359 5.44604492 C-18.66796875 4.86767578 -18.66796875 4.86767578 -21.66796875 2.86767578 C-16.56654158 2.71569026 -11.89001324 3.2530207 -6.91796875 4.30517578 C-0.52485156 5.65211277 5.81793392 6.3634119 12.33203125 6.86767578 C11.78603271 6.77268799 11.24003418 6.6777002 10.67749023 6.57983398 C-1.28133326 4.48582821 -13.16474197 2.20957417 -24.98852539 -0.55688477 C-37.77907106 -3.46398248 -47.68045116 -0.69617196 -59.10546875 5.68017578 C-69.88257706 12.64737346 -75.57634181 23.8851897 -79.07910156 35.97265625 C-80.22477039 41.60505299 -80.01507759 47.26932367 -79.91796875 52.99267578 C-79.9128125 54.21599609 -79.90765625 55.43931641 -79.90234375 56.69970703 C-79.84925524 62.83806575 -79.60617969 68.79956957 -78.66796875 74.86767578 C-78.00796875 74.86767578 -77.34796875 74.86767578 -76.66796875 74.86767578 C-76.66796875 70.90767578 -76.66796875 66.94767578 -76.66796875 62.86767578 C-76.00796875 62.86767578 -75.34796875 62.86767578 -74.66796875 62.86767578 C-70.22855183 89.26045672 -70.22855183 89.26045672 -69.66796875 100.86767578 C-69.10561523 100.90505859 -68.54326172 100.94244141 -67.96386719 100.98095703 C-60.44528183 101.59570309 -53.25631578 103.16370035 -45.91796875 104.86767578 C-43.54849546 105.41073344 -41.17871369 105.95244733 -38.80859375 106.49267578 C-37.77250977 106.73244141 -36.73642578 106.97220703 -35.66894531 107.21923828 C-32.67945079 107.86519479 -29.68844712 108.38963068 -26.66796875 108.86767578 C-26.29671875 106.94955078 -26.29671875 106.94955078 -25.91796875 104.99267578 C-24.30833023 96.9211551 -22.46996605 88.89793558 -20.66796875 80.86767578 C-20.33796875 80.86767578 -20.00796875 80.86767578 -19.66796875 80.86767578 C-18.51660513 89.05414309 -18.55381892 97.18276932 -18.60546875 105.43017578 C-18.61049509 106.83447106 -18.61505599 108.23876808 -18.61914062 109.64306641 C-18.63085282 113.05131481 -18.64725503 116.45947219 -18.66796875 119.86767578 C-29.5868531 117.85238021 -40.26414906 115.84311908 -50.66796875 111.86767578 C-50.52875 112.75519531 -50.52875 112.75519531 -50.38671875 113.66064453 C-50.14972188 116.25491386 -50.1067557 118.31670736 -50.66796875 120.86767578 C-52.95522253 123.35097989 -55.40126327 124.97946572 -58.66796875 125.86767578 C-61.95222778 124.77078458 -64.33434059 122.62595817 -66.91796875 120.36767578 C-67.624375 119.75923828 -68.33078125 119.15080078 -69.05859375 118.52392578 C-70.66796875 116.86767578 -70.66796875 116.86767578 -70.66796875 114.86767578 C-71.32796875 114.86767578 -71.98796875 114.86767578 -72.66796875 114.86767578 C-72.66796875 114.20767578 -72.66796875 113.54767578 -72.66796875 112.86767578 C-68.37796875 113.85767578 -64.08796875 114.84767578 -59.66796875 115.86767578 C-59.66796875 114.21767578 -59.66796875 112.56767578 -59.66796875 110.86767578 C-65.27796875 109.87767578 -70.88796875 108.88767578 -76.66796875 107.86767578 C-76.70921875 105.22767578 -76.75046875 102.58767578 -76.79296875 99.86767578 C-77.05568119 93.60724416 -77.57669019 89.59063405 -81.9765625 84.88330078 C-91.55630334 73.46725857 -92.8253814 58.04376063 -91.66796875 43.86767578 C-90.08178735 31.89482432 -85.34546573 21.88392126 -78.66796875 11.86767578 C-78.00796875 11.86767578 -77.34796875 11.86767578 -76.66796875 11.86767578 C-76.32185547 11.00335938 -76.32185547 11.00335938 -75.96875 10.12158203 C-74.33938129 7.29832153 -72.42351002 5.8033968 -69.85546875 3.80517578 C-69.00339844 3.13357422 -68.15132812 2.46197266 -67.2734375 1.77001953 C-46.41304213 -13.46088384 -22.80955679 -5.28225609 0 0 Z " fill="#F6F6F6" transform="translate(1260.66796875,190.13232421875)"/>
<path d="M0 0 C8.58 0 17.16 0 26 0 C26.875 9 26.875 9 27.13623047 11.72265625 C27.86637833 19.11984131 28.79363814 26.49014747 29.72943115 33.86352539 C30.45571935 39.59846611 31.16576373 45.3352951 31.85986328 51.07421875 C32.0375337 52.53222865 32.21790011 53.9899124 32.40087891 55.44726562 C33.51333355 64.32319152 34.29022209 73.03536201 34 82 C37.96405171 78.2832599 40.94572391 74.3961185 43.9375 69.875 C48.1279205 63.65917342 52.46602252 57.57915004 56.9375 51.5625 C61.88877557 44.89193806 66.74505385 38.1667558 71.515625 31.3659668 C76.79396269 23.84804031 82.10516362 16.34081218 87.61401367 8.98950195 C89.03987802 7.04754215 89.03987802 7.04754215 90.02075195 4.93823242 C91.174547 2.76323405 92.01877387 1.47901807 94 0 C98.46443552 -0.86072558 102.78777803 -0.65898989 107.3125 -0.4375 C109.1387793 -0.39012695 109.1387793 -0.39012695 111.00195312 -0.34179688 C114.00375435 -0.25939449 117.00064653 -0.14439803 120 0 C120 0.99 120 1.98 120 3 C118.87851563 3.14695313 118.87851563 3.14695313 117.734375 3.296875 C116.74953125 3.44640625 115.7646875 3.5959375 114.75 3.75 C113.77546875 3.88921875 112.8009375 4.0284375 111.796875 4.171875 C108.39109937 5.18028901 107.16299849 6.19369592 105 9 C103.92435209 11.31086997 103.05540321 13.47285344 102.25 15.875 C102.00467529 16.58390381 101.75935059 17.29280762 101.5065918 18.02319336 C98.49485562 27.04354287 96.16377176 36.2813512 93.80371094 45.48974609 C92.34849083 51.12707867 90.88541234 56.63316321 88.73022461 62.04321289 C87.16024959 66.25028403 86.0543224 70.60837933 84.875 74.9375 C84.61074219 75.87529297 84.34648438 76.81308594 84.07421875 77.77929688 C81.65817414 86.26100611 81.65817414 86.26100611 81 95 C82.65587522 98.16948699 82.65587522 98.16948699 85.3828125 98.73046875 C86.74019531 98.95669922 86.74019531 98.95669922 88.125 99.1875 C89.49011719 99.42533203 89.49011719 99.42533203 90.8828125 99.66796875 C91.58148437 99.77753906 92.28015625 99.88710938 93 100 C93 100.99 93 101.98 93 103 C78.81 103 64.62 103 50 103 C50 102.01 50 101.02 50 100 C50.66386719 99.91363281 51.32773438 99.82726562 52.01171875 99.73828125 C52.89472656 99.59777344 53.77773437 99.45726562 54.6875 99.3125 C55.55761719 99.18488281 56.42773438 99.05726563 57.32421875 98.92578125 C60.9336878 97.67695765 62.57476199 95.92981773 65 93 C68.58339989 85.57100022 70.50989161 77.36511338 72.41479492 69.37231445 C73.71223619 63.97728638 75.25137269 58.68027117 76.875 53.375 C80.15483624 42.64731205 83.0999189 31.83567279 86 21 C85.35675781 21.94617188 84.71351562 22.89234375 84.05078125 23.8671875 C77.41380903 33.59460116 70.59362736 43.17492263 63.67041016 52.70019531 C58.76414208 59.45509815 53.88198925 66.22753831 49 73 C48.55027832 73.62358398 48.10055664 74.24716797 47.63720703 74.88964844 C46.38107722 76.6332955 45.12760663 78.37882074 43.875 80.125 C43.48078857 80.6720459 43.08657715 81.2190918 42.68041992 81.78271484 C40.41042587 84.95301476 38.21967939 88.16323196 36.078125 91.421875 C35.58586426 92.1629248 35.09360352 92.90397461 34.58642578 93.66748047 C33.63022565 95.11184426 32.6853661 96.56379629 31.75341797 98.02392578 C30.4453125 99.9921875 30.4453125 99.9921875 28 103 C26.68 103 25.36 103 24 103 C21.99133713 90.03499418 20.37912048 77.03835637 18.9375 64 C18.85136444 63.22097321 18.76522888 62.44194641 18.67648315 61.63931274 C17.54977263 51.40244535 16.47331551 41.16212859 15.59545898 30.90039062 C15.31859638 27.75969887 15.00138076 25.00414229 14 22 C13.6596875 23.26328125 13.319375 24.5265625 12.96875 25.828125 C10.0116987 36.76091432 6.98176558 47.67126813 3.875 58.5625 C3.55080078 59.70170898 3.22660156 60.84091797 2.89257812 62.01464844 C0.97293811 68.72170712 -1.04234236 75.38589325 -3.18798828 82.02441406 C-4.61501307 87.25369191 -5 92.59254798 -5 98 C-1.37 98.66 2.26 99.32 6 100 C5.505 101.485 5.505 101.485 5 103 C-6.22 103 -17.44 103 -29 103 C-28.67 102.01 -28.34 101.02 -28 100 C-27.32453125 99.90203125 -26.6490625 99.8040625 -25.953125 99.703125 C-25.06109375 99.55359375 -24.1690625 99.4040625 -23.25 99.25 C-21.92742187 99.04117188 -21.92742187 99.04117188 -20.578125 98.828125 C-17.39579252 97.80592124 -16.18298882 96.51328131 -14 94 C-12.78835296 91.59139662 -12.78835296 91.59139662 -11.95043945 88.9387207 C-11.45466904 87.4792955 -11.45466904 87.4792955 -10.94888306 85.99038696 C-9.47435393 81.34343638 -8.10165321 76.67665998 -6.79296875 71.98046875 C-6.50448563 70.96060379 -6.2160025 69.94073883 -5.91877747 68.88996887 C-5.00446413 65.6568939 -4.09536514 62.4223911 -3.1875 59.1875 C0.59585796 45.71372449 4.43763582 32.28378071 8.78877258 18.98027039 C9.0643248 18.13382462 9.33987701 17.28737885 9.6237793 16.4152832 C9.86605759 15.68009964 10.10833588 14.94491608 10.35795593 14.18745422 C11.05546394 11.81103348 11.54696691 9.4338151 12 7 C11.39671875 6.80664062 10.7934375 6.61328125 10.171875 6.4140625 C8.97304687 6.02347656 8.97304687 6.02347656 7.75 5.625 C6.96109375 5.36976563 6.1721875 5.11453125 5.359375 4.8515625 C3.13372042 4.04826333 1.09068328 3.10288338 -1 2 C-0.67 1.34 -0.34 0.68 0 0 Z " fill="#A61F2E" transform="translate(1375,207)"/>
<path d="M0 0 C0.78165527 0.24669434 1.56331055 0.49338867 2.36865234 0.74755859 C21.40097803 6.91253345 35.95716887 16.48047099 50.7265625 29.9453125 C53.42157001 32.38100658 56.18567675 34.70410471 59 37 C59.61875 36.505 60.2375 36.01 60.875 35.5 C63 34 63 34 65 34 C67.20330318 37.30495477 68.04438371 40.12332472 69.125 43.9375 C69.65480469 45.77634766 69.65480469 45.77634766 70.1953125 47.65234375 C71 51 71 51 71 55 C63.88879511 53.68882339 56.95300057 51.98279484 50 50 C50.3125 47.625 50.3125 47.625 51 45 C51.99 44.34 52.98 43.68 54 43 C53.72382467 41.05925139 53.72382467 41.05925139 53 39 C52.01 38.34 51.02 37.68 50 37 C50 36.34 50 35.68 50 35 C49.45859375 34.76410156 48.9171875 34.52820313 48.359375 34.28515625 C45.35885599 32.65076758 42.90426209 30.58987751 40.25 28.4375 C32.98207607 22.70545109 25.18717114 18.27631503 17 14 C16.08992188 13.50628906 15.17984375 13.01257813 14.2421875 12.50390625 C11.53680222 11.14273278 8.84464421 10.0419546 6 9 C5.38431152 8.77296387 4.76862305 8.54592773 4.13427734 8.31201172 C-7.47892671 4.2409217 -19.05038908 3.49705587 -31.25 3.4375 C-31.96044464 3.42882904 -32.67088928 3.42015808 -33.40286255 3.41122437 C-48.58077751 3.28266664 -62.18632982 6.54731297 -76 13 C-76.96164062 13.42925781 -77.92328125 13.85851562 -78.9140625 14.30078125 C-92.28579391 20.5632676 -103.54108094 29.69376589 -114 40 C-114.72832031 40.71542969 -115.45664063 41.43085938 -116.20703125 42.16796875 C-134.82303276 61.738637 -142.43557145 89.40100525 -142.3125 115.8125 C-142.30831055 117.04427979 -142.30412109 118.27605957 -142.29980469 119.54516602 C-142.18974897 128.40992002 -141.44566807 136.4454554 -139 145 C-138.73316406 146.0621875 -138.46632813 147.124375 -138.19140625 148.21875 C-130.00362154 178.20423712 -109.2484967 199.66450619 -83 215 C-66.84915523 224.0559307 -49.96090998 227.61803997 -31.5625 227.5 C-30.45456589 227.49735641 -30.45456589 227.49735641 -29.32424927 227.49465942 C-4.96394828 227.36580364 16.49002469 221.1911334 37.2421875 208.50390625 C40 207 40 207 43 207 C33.28319864 217.15973247 19.46829573 224.19989031 6 228 C4.18628906 228.55494141 4.18628906 228.55494141 2.3359375 229.12109375 C-8.58389791 232.11209595 -19.44316231 232.40241719 -30.6875 232.4375 C-31.42363525 232.44358276 -32.15977051 232.44966553 -32.91821289 232.45593262 C-67.13876407 232.64069236 -98.03754341 219.34668678 -122.5078125 195.5625 C-136.02512945 181.24450574 -144.65421357 163.33245825 -149.1875 144.3125 C-149.43802124 143.26147095 -149.43802124 143.26147095 -149.69360352 142.18920898 C-156.83262097 110.94728132 -150.69844051 77.79083445 -133.94140625 50.66796875 C-117.80244776 26.41637872 -94.30103802 8.54685267 -66.3125 0.1875 C-65.66055664 -0.00739014 -65.00861328 -0.20228027 -64.33691406 -0.40307617 C-43.77951565 -6.17308322 -20.39844443 -6.5250975 0 0 Z " fill="#A51F2E" transform="translate(1286,139)"/>
<path d="M0 0 C8.56220557 8.5047411 11.68647591 17.51460447 11.93359375 29.484375 C11.68316737 49.61865577 2.14979599 67.62424873 -11.4609375 82.078125 C-23.15799865 93.40662203 -37.63365641 99.68448056 -53.94140625 100.046875 C-63.92436674 99.74618342 -70.69323252 98.49829612 -78.25390625 91.734375 C-79.14078125 90.991875 -80.02765625 90.249375 -80.94140625 89.484375 C-88.68406698 80.27688656 -91.10602882 69.51042953 -90.25390625 57.734375 C-87.82123145 37.23728341 -75.65282096 19.01971318 -60.25390625 5.734375 C-43.74356232 -6.25120963 -17.70144079 -14.86773821 0 0 Z M-57.3046875 15.99609375 C-60.41076245 20.35953772 -62.8782211 24.94239469 -65.25390625 29.734375 C-65.69605469 30.58515625 -66.13820313 31.4359375 -66.59375 32.3125 C-73.63052497 46.59993368 -77.8514751 64.86979006 -73.11328125 80.49609375 C-70.46798991 86.15562496 -67.5168488 90.34270091 -62.25390625 93.734375 C-55.20729625 96.083245 -46.34740728 95.61700361 -39.43359375 92.89453125 C-22.9450995 84.11839722 -12.67392899 65.57088943 -7.02734375 48.3203125 C-6.77210937 47.46695313 -6.516875 46.61359375 -6.25390625 45.734375 C-5.95742187 44.81914062 -5.6609375 43.90390625 -5.35546875 42.9609375 C-1.8285356 30.89170753 -1.45791131 18.12441383 -7.25390625 6.734375 C-10.26069252 1.50033964 -14.56519495 -0.69832699 -20.25390625 -2.265625 C-36.22017735 -4.6544405 -47.88137621 3.88040781 -57.3046875 15.99609375 Z " fill="#A81E2D" transform="translate(1823.25390625,212.265625)"/>
<path d="M0 0 C0.99 0 1.98 0 3 0 C2.89042969 1.30324219 2.78085938 2.60648438 2.66796875 3.94921875 C2.50775328 5.86197421 2.34760333 7.77473515 2.1875 9.6875 C2.05710327 11.24078003 2.05710327 11.24078003 1.92407227 12.82543945 C1.34416874 19.76779874 0.78305061 26.7113644 0.234375 33.65625 C0.03488833 36.16681242 -0.16482316 38.67735687 -0.36459351 41.18789673 C-0.49622163 42.85038936 -0.62678095 44.51296697 -0.7562561 46.17562866 C-0.94029725 48.53787868 -1.12801428 50.89981229 -1.31640625 53.26171875 C-1.37052673 53.96917236 -1.42464722 54.67662598 -1.48040771 55.40551758 C-1.77120608 59.00656522 -2.25071535 62.46831546 -3 66 C-3.48197847 71.65878421 -3.75859033 77.32625367 -4 83 C-4.03013184 83.69593262 -4.06026367 84.39186523 -4.09130859 85.10888672 C-4.16450815 87.03025839 -4.2079933 88.95269339 -4.25 90.875 C-4.27578125 91.98617187 -4.3015625 93.09734375 -4.328125 94.2421875 C-4.2162499 96.97782791 -4.2162499 96.97782791 -2.77734375 98.80859375 C-0.63031233 100.24781261 1.15261848 100.70991363 3.6875 101.1875 C4.89986328 101.42533203 4.89986328 101.42533203 6.13671875 101.66796875 C6.75160156 101.77753906 7.36648438 101.88710938 8 102 C7.505 103.485 7.505 103.485 7 105 C-6.2 105 -19.4 105 -33 105 C-33 104.01 -33 103.02 -33 102 C-32.07767578 101.83564453 -32.07767578 101.83564453 -31.13671875 101.66796875 C-30.32847656 101.50941406 -29.52023437 101.35085938 -28.6875 101.1875 C-27.88699219 101.03667969 -27.08648438 100.88585937 -26.26171875 100.73046875 C-23.54839653 99.85414534 -22.62738916 99.35279429 -21 97 C-19.20740965 91.23362544 -18.47042827 85.49332716 -17.875 79.5 C-17.74544922 78.26636719 -17.74544922 78.26636719 -17.61328125 77.0078125 C-17.40376148 75.00573474 -17.20114956 73.00293603 -17 71 C-34.4424963 69.31456655 -34.4424963 69.31456655 -49.9765625 74.6796875 C-52.63276617 77.81114788 -54.3015344 81.27975681 -56 85 C-57.02184257 86.51357432 -58.06003407 88.01645121 -59.125 89.5 C-61.40444914 93.58755965 -61.40444914 93.58755965 -61 98 C-58.72285584 100.19862195 -57.02076303 100.99307899 -54 102 C-54 102.99 -54 103.98 -54 105 C-63.9 105 -73.8 105 -84 105 C-84 104.01 -84 103.02 -84 102 C-82.845 101.649375 -81.69 101.29875 -80.5 100.9375 C-71.92450673 97.69137215 -66.51062066 90.52375905 -61.375 83.25 C-60.15523454 81.55838704 -58.93517404 79.86698679 -57.71484375 78.17578125 C-57.0997998 77.31678223 -56.48475586 76.4577832 -55.85107422 75.57275391 C-52.91954875 71.49831242 -49.92542166 67.47065159 -46.9375 63.4375 C-42.33042275 57.19818638 -37.77529345 50.92381852 -33.25 44.625 C-28.82184463 38.46388718 -24.27657423 32.4259577 -19.6171875 26.4375 C-15.77519353 21.4432087 -12.12891188 16.30311909 -8.46484375 11.17773438 C-6.98536251 9.1119402 -5.49519632 7.05443583 -4 5 C-3.27554687 3.9996875 -2.55109375 2.999375 -1.8046875 1.96875 C-1.20914062 1.3190625 -0.61359375 0.669375 0 0 Z " fill="#A71F2E" transform="translate(1556,205)"/>
<path d="M0 0 C12.54 0 25.08 0 38 0 C37.67 0.99 37.34 1.98 37 3 C35.00390625 3.625 35.00390625 3.625 32.5625 4 C30.1571954 4.31571619 30.1571954 4.31571619 28 5 C25.1781734 9.2327399 26.08095624 12.15266258 27 17 C27.82155381 20.19530018 28.82422812 23.31099166 29.875 26.4375 C30.41715424 28.0987993 30.95882537 29.76025633 31.5 31.421875 C31.88865234 32.60233398 31.88865234 32.60233398 32.28515625 33.80664062 C33.60222773 37.84781898 34.79716323 41.92371983 36 46 C40.13549559 42.14070177 43.24086704 38.00759543 46.375 33.3125 C47.34076815 31.88516105 48.30691376 30.45807741 49.2734375 29.03125 C49.7384668 28.34160156 50.20349609 27.65195313 50.68261719 26.94140625 C52.92836945 23.6318766 55.24613477 20.37356531 57.5625 17.11328125 C61.01439805 12.5582474 61.01439805 12.5582474 61.6875 7.1875 C61.460625 6.465625 61.23375 5.74375 61 5 C56.545 4.01 56.545 4.01 52 3 C52.33 2.01 52.66 1.02 53 0 C63.56 0 74.12 0 85 0 C85 0.99 85 1.98 85 3 C84.43152344 3.14695313 83.86304688 3.29390625 83.27734375 3.4453125 C82.50519531 3.66960937 81.73304687 3.89390625 80.9375 4.125 C80.18339844 4.33382812 79.42929688 4.54265625 78.65234375 4.7578125 C72.21448862 7.77289045 67.8685236 13.02847967 63.875 18.75 C63.19002441 19.70749146 63.19002441 19.70749146 62.49121094 20.68432617 C61.50801534 22.05911396 60.52829418 23.43639204 59.55175781 24.81591797 C57.37153992 27.88455065 55.15737946 30.92816262 52.9453125 33.97387695 C51.27731316 36.27482248 49.61804742 38.58182859 47.9609375 40.890625 C46.23609775 43.29296348 44.49537585 45.67630041 42.7265625 48.046875 C38.91746487 53.2221047 36.69055594 57.82409622 35 64 C34.33545697 66.10483832 33.6686267 68.20895534 33 70.3125 C27.8183385 84.06565027 27.8183385 84.06565027 29 98 C31.34907875 98.68931344 31.34907875 98.68931344 34.0625 99.125 C34.98160156 99.29257812 35.90070313 99.46015625 36.84765625 99.6328125 C37.91306641 99.81457031 37.91306641 99.81457031 39 100 C39 100.99 39 101.98 39 103 C24.81 103 10.62 103 -4 103 C-4 102.01 -4 101.02 -4 100 C-3.33613281 99.91363281 -2.67226562 99.82726562 -1.98828125 99.73828125 C2.10770314 99.08651147 5.29816053 98.45229655 8.8125 96.1875 C13.84867242 88.84907734 16.14114274 80.03018795 18.3125 71.48046875 C18.93896088 69.22022639 19.71478624 67.15738166 20.625 65 C25.91756536 50.66716083 19.90416128 36.41814751 14.67431641 22.8112793 C13.3226088 19.18046151 12.27037833 15.44472757 11.16015625 11.734375 C9.86821344 8.68939195 8.53508052 7.1006317 6 5 C2.86649283 3.73215876 2.86649283 3.73215876 0 3 C0 2.01 0 1.02 0 0 Z " fill="#A71F2E" transform="translate(1829,207)"/>
<path d="M0 0 C13.86 0 27.72 0 42 0 C42 0.99 42 1.98 42 3 C40.89591797 3.12955078 40.89591797 3.12955078 39.76953125 3.26171875 C38.79371094 3.40222656 37.81789063 3.54273438 36.8125 3.6875 C35.36810547 3.87892578 35.36810547 3.87892578 33.89453125 4.07421875 C29.9560113 5.33390732 28.51706938 6.69113728 26 10 C24.50364575 13.56393551 23.46568202 17.21524734 22.4375 20.9375 C21.98709351 22.49174683 21.98709351 22.49174683 21.52758789 24.07739258 C20.66992538 27.04754488 19.83253808 30.0227255 19 33 C18.62637558 34.30768547 18.25161542 35.6150478 17.875 36.921875 C17.25231956 39.09087852 16.63508702 41.26145378 16.0234375 43.43359375 C14.74586773 47.88558306 13.40375892 52.3168616 12.0625 56.75 C9.78341463 64.28412472 7.61730257 71.8424727 5.56079102 79.44042969 C4.10106856 84.79786288 4.10106856 84.79786288 3 87 C2.81295596 89.69013339 2.91418609 92.29686177 3 95 C5.67152462 97.67152462 13.35106901 96.28440785 16.9375 96.3125 C18.13697266 96.34150391 19.33644531 96.37050781 20.57226562 96.40039062 C29.88704853 96.46645292 37.65862531 95.27032618 44.75 88.875 C48.03329672 85.31293281 50.35386619 81.29140613 52.640625 77.0390625 C54 75 54 75 57 74 C55.33603823 83.98377061 51.32511635 93.4402905 48 103 C22.92 103 -2.16 103 -28 103 C-28 102.01 -28 101.02 -28 100 C-27.33613281 99.91363281 -26.67226562 99.82726562 -25.98828125 99.73828125 C-25.10527344 99.59777344 -24.22226563 99.45726562 -23.3125 99.3125 C-22.44238281 99.18488281 -21.57226562 99.05726563 -20.67578125 98.92578125 C-17.09704388 97.68759036 -15.00921421 96.15506476 -13 93 C-11.36066924 88.92139409 -10.21400753 84.73842784 -9.0625 80.5 C-8.72114014 79.29545166 -8.37978027 78.09090332 -8.02807617 76.84985352 C-7.3341754 74.39677226 -6.64703964 71.94176697 -5.96679688 69.48486328 C-5.10511793 66.37890236 -4.2237803 63.27989363 -3.328125 60.18359375 C-0.74481088 51.25266114 1.77363901 42.30346666 4.23583984 33.33837891 C5.18613422 29.88509787 6.15828399 26.44278121 7.19921875 23.015625 C7.56660156 21.79359375 7.93398437 20.5715625 8.3125 19.3125 C8.63863281 18.25675781 8.96476562 17.20101562 9.30078125 16.11328125 C10.07629086 12.66031386 10.11981313 9.52783114 10 6 C6.73454239 4.11608215 3.71888239 3.50712033 0 3 C0 2.01 0 1.02 0 0 Z " fill="#A71F2E" transform="translate(1674,207)"/>
<path d="M0 0 C13.86 0 27.72 0 42 0 C42 0.99 42 1.98 42 3 C40.89591797 3.11214844 40.89591797 3.11214844 39.76953125 3.2265625 C38.79371094 3.35804688 37.81789063 3.48953125 36.8125 3.625 C35.36810547 3.79902344 35.36810547 3.79902344 33.89453125 3.9765625 C30.04816643 5.33654574 28.11901716 7.64444058 26 11 C24.58991374 13.99749986 24.58991374 13.99749986 23.625 17.3125 C23.42567871 17.94293213 23.22635742 18.57336426 23.02099609 19.22290039 C20.4322332 27.5654481 18.15691524 36.00696901 15.83203125 44.42578125 C14.05437984 50.84417877 12.19153267 57.23567982 10.3125 63.625 C9.46247017 66.53575105 8.61444724 69.44707265 7.76806641 72.35888672 C7.27744546 74.04596154 6.78510451 75.73253775 6.29052734 77.41845703 C5.68196464 79.50502267 5.08820138 81.59511952 4.5 83.6875 C4.1803125 84.80511719 3.860625 85.92273438 3.53125 87.07421875 C2.97728605 90.12509374 3.02736035 92.06622278 4 95 C11.70714859 98.8535743 28.00728362 97.44882762 36.14453125 95.01171875 C43.29468072 91.7533066 47.14772208 86.68738134 51 80 C52.26880835 77.91552913 53.54988986 75.96800662 55 74 C55.99 74 56.98 74 58 74 C57.81969238 74.53367187 57.63938477 75.06734375 57.45361328 75.6171875 C55.22696874 82.24693918 53.13442439 88.91455016 51.07421875 95.59765625 C50.82027344 96.41105469 50.56632812 97.22445312 50.3046875 98.0625 C50.07765137 98.79597656 49.85061523 99.52945313 49.61669922 100.28515625 C49 102 49 102 48 103 C45.62699131 103.09494733 43.28321297 103.12559319 40.90991211 103.11352539 C40.16849472 103.11367142 39.42707733 103.11381744 38.66319275 103.1139679 C36.20121379 103.11326865 33.73930957 103.10547574 31.27734375 103.09765625 C29.57483461 103.09579211 27.87232493 103.09436819 26.16981506 103.09336853 C21.68006927 103.08954302 17.19035562 103.07971247 12.70062256 103.06866455 C8.12268509 103.05845113 3.54474244 103.05387106 -1.03320312 103.04882812 C-10.02214957 103.03809022 -19.01107212 103.02101341 -28 103 C-27.67 102.01 -27.34 101.02 -27 100 C-24.81812967 99.35986449 -22.67443518 99.11511064 -20.421875 98.8203125 C-16.80924021 97.59667814 -15.36776547 96.01006462 -13 93 C-11.4509375 89.55173915 -10.38584696 85.99556924 -9.3125 82.375 C-8.98145264 81.30121094 -8.65040527 80.22742188 -8.30932617 79.12109375 C-4.28303754 65.92221624 -0.53463653 52.63525092 3.19116211 39.34889221 C4.22499034 35.6773179 5.29027687 32.0183084 6.40161133 28.36938477 C6.63209671 27.60726685 6.86258209 26.84514893 7.10005188 26.05993652 C7.54062731 24.60889859 7.98678106 23.15953762 8.43962097 21.71228027 C10.08970509 16.26249779 10.44834374 11.64913119 10 6 C6.66688525 4.2175082 3.75519057 3.51207144 0 3 C0 2.01 0 1.02 0 0 Z " fill="#A71F2E" transform="translate(1594,207)"/>
<path d="M0 0 C4.41752713 4.08395876 7.65271346 8.01205981 9 14 C8.32904297 13.40251953 8.32904297 13.40251953 7.64453125 12.79296875 C7.03996094 12.26316406 6.43539063 11.73335937 5.8125 11.1875 C5.22082031 10.66542969 4.62914062 10.14335937 4.01953125 9.60546875 C-1.37096541 5.3201803 -5.21393907 4.31636195 -12.0625 4.54296875 C-16.84751445 5.28744573 -19.17347534 7.14433046 -22 11 C-30.82867405 24.80787885 -33.05040495 41.48714182 -30.1875 57.5 C-28.58495121 64.23293066 -26.00508557 71.05640196 -21 76 C-18.10576544 77.66716195 -15.11753965 78.82325426 -12 80 C-10.65893747 80.65097889 -9.32297744 81.31301171 -8 82 C-16.14955516 82.69720529 -22.25359027 81.83413514 -29 77 C-36.87717321 69.8310814 -40.49781876 57.37841223 -41 47 C-41.05027344 46.14664063 -41.10054687 45.29328125 -41.15234375 44.4140625 C-41.66241814 29.19344273 -38.49495001 13.51059034 -28 2 C-20.06912357 -4.31233022 -8.80778226 -5.31790627 0 0 Z " fill="#F7F7F7" transform="translate(1320,223)"/>
<path d="M0 0 C7.89379391 0.59645271 15.31315791 2.07821163 23 3.9375 C25.2288325 4.4688516 27.45799525 4.99881998 29.6875 5.52734375 C30.74839844 5.78112793 31.80929687 6.03491211 32.90234375 6.29638672 C36.63904016 7.14515398 40.39376862 7.83767892 44.171875 8.47485352 C45.07679687 8.73480103 45.07679687 8.73480103 46 9 C47.95635231 12.91270463 47.3696659 17.7241978 47 22 C45.5 25.1875 45.5 25.1875 44 27 C37.45145624 25.99753778 31.09420514 24.32340445 24.68725586 22.67138672 C22.57357016 22.12784672 20.45779186 21.59306256 18.34179688 21.05859375 C16.97902904 20.70886919 15.61639426 20.35862565 14.25390625 20.0078125 C13.03002197 19.69473145 11.8061377 19.38165039 10.54516602 19.05908203 C6.85231676 17.95588115 3.50850083 16.58288802 0 15 C0 10.05 0 5.1 0 0 Z " fill="#F8F8F8" transform="translate(1302,256)"/>
<path d="M0 0 C5.28 0 10.56 0 16 0 C16 0.66 16 1.32 16 2 C17.670625 1.9690625 17.670625 1.9690625 19.375 1.9375 C23 2 23 2 25 3 C25.33 2.01 25.66 1.02 26 0 C28.26171875 0.00390625 28.26171875 0.00390625 31 1 C32.69891127 3.46415864 33.72500214 6.15993923 34.8125 8.9375 C35.27946289 10.0502832 35.27946289 10.0502832 35.75585938 11.18554688 C38 16.62573832 38 16.62573832 38 19 C36.68 19 35.36 19 34 19 C34 18.01 34 17.02 34 16 C30.04 16 26.08 16 22 16 C21.67 17.32 21.34 18.64 21 20 C14.07 19.67 7.14 19.34 0 19 C0 12.73 0 6.46 0 0 Z " fill="#454446" transform="translate(1755,334)"/>
<path d="M0 0 C0.33 0 0.66 0 1 0 C0.45285953 9.11420841 -0.2347593 18.21408619 -1 27.3125 C-1.0829834 28.33287354 -1.1659668 29.35324707 -1.25146484 30.40454102 C-1.37448975 31.83817993 -1.37448975 31.83817993 -1.5 33.30078125 C-1.5721875 34.15841064 -1.644375 35.01604004 -1.71875 35.8996582 C-2 38 -2 38 -3 40 C-11.25 40 -19.5 40 -28 40 C-26.53900735 36.34751838 -25.70912446 34.3229684 -23.4609375 31.3984375 C-22.96674316 30.74875 -22.47254883 30.0990625 -21.96337891 29.4296875 C-21.17713135 28.41261719 -21.17713135 28.41261719 -20.375 27.375 C-19.28582054 25.94579833 -18.19728054 24.51610911 -17.109375 23.0859375 C-16.57763672 22.38952148 -16.04589844 21.69310547 -15.49804688 20.97558594 C-13.50260673 18.34405047 -11.55938108 15.67664359 -9.625 13 C-4.86857477 6.43633178 -4.86857477 6.43633178 -2.5625 3.3125 C-2.08941406 2.66925781 -1.61632813 2.02601563 -1.12890625 1.36328125 C-0.75636719 0.91339844 -0.38382813 0.46351563 0 0 Z " fill="#3E3639" transform="translate(1543,231)"/>
<path d="M0 0 C1.32 0 2.64 0 4 0 C4 5.61 4 11.22 4 17 C7.96 17 11.92 17 16 17 C16 17.99 16 18.98 16 20 C4.66666667 20 -6.66666667 20 -18 20 C-18 13.73 -18 7.46 -18 1 C-9.5625 1.0625 -9.5625 1.0625 -6.90063477 1.09008789 C-4.93354026 1.09723091 -2.96646379 1.05031893 -1 1 C-0.67 0.67 -0.34 0.34 0 0 Z " fill="#3B3A3D" transform="translate(1584,333)"/>
<path d="M0 0 C2.97672584 1.77280561 5.42804007 3.85608015 7 7 C7.39447548 11.18144011 7.45035186 13.30946048 5.125 16.875 C2.28058592 19.71941408 0.6112568 20.20354172 -3.3125 20.375 C-7.14506165 20.35031361 -7.82418398 20.13918768 -11 17.625 C-13.89236866 13.82876614 -14.55362163 11.79805415 -14 7 C-10.30863055 1.03595906 -6.96661383 -0.69666138 0 0 Z " fill="#EBEBEB" transform="translate(1489,362)"/>
<path d="M0 0 C4.00535091 2.44771444 5.66804391 3.92602443 7.0625 8.4375 C6.99118687 12.50234831 6.20649268 14.61145766 4 18 C0.00191454 20.66539031 -3.29751653 20.84149704 -8 20 C-11 17.5625 -11 17.5625 -13 15 C-13.33 14.67 -13.66 14.34 -14 14 C-14.91008059 7.28815562 -14.91008059 7.28815562 -12.68359375 4.13671875 C-8.69251051 0.39563625 -5.57148618 -1.11429724 0 0 Z " fill="#F0F0F0" transform="translate(1406,362)"/>
<path d="M0 0 C2.97672584 1.77280561 5.42804007 3.85608015 7 7 C7.4136968 11.65408901 6.81070393 14.25239476 4 18 C-0.00254616 20.66836411 -3.29313299 20.8340238 -8 20 C-11.65305395 17.10799895 -13.74232841 14.88959163 -14.375 10.25 C-13.8528401 5.7246142 -12.15770622 4.2328897 -9 1 C-5.85088521 -0.57455739 -3.47991184 -0.34799118 0 0 Z " fill="#EFEFEF" transform="translate(1610,362)"/>
<path d="M0 0 C5.57894737 3.15789474 5.57894737 3.15789474 7 6 C7.47847852 9.0828553 7.5463489 11.92347221 7 15 C4.41498142 18.16664776 2.94003044 19.5764456 -1.00390625 20.4375 C-4.69570903 20.66167019 -6.83219775 20.10710782 -9.9375 18.125 C-13.07093316 14.89661432 -13.39218693 12.55070291 -13.359375 8.0390625 C-12.7567698 4.61993302 -10.63213933 3.06810948 -8 1 C-5.13391871 -0.43304064 -3.18699217 -0.30644155 0 0 Z " fill="#F3F2F3" transform="translate(1650,362)"/>
<path d="M0 0 C11.55555556 0 11.55555556 0 16 4 C18.13991907 6.69815883 18.00027114 7.99240811 17.875 11.5 C16.92565772 15.29736911 16.02747709 16.61471502 13 19 C9.14854957 20.92572521 4.19956748 20.04883218 0 20 C0 13.4 0 6.8 0 0 Z " fill="#F2F2F2" transform="translate(1757,362)"/>
<path d="M0 0 C12.05357143 -0.66964286 12.05357143 -0.66964286 15.75 2 C18.09065826 5.12087768 18.86494974 7.06717976 18.4921875 10.99609375 C17.83201804 13.68392654 16.86674839 15.90037454 14.9765625 17.9453125 C10.47046599 20.34975135 4.90425956 19.29722785 0 19 C0 12.73 0 6.46 0 0 Z " fill="#EFEFEF" transform="translate(1396,334)"/>
<path d="M0 0 C11.25 -0.40178571 11.25 -0.40178571 15 3 C14.67 5.31 14.34 7.62 14 10 C14.66 10 15.32 10 16 10 C16.33 12.31 16.66 14.62 17 17 C14.51565563 19.34290892 13.22268407 19.97982934 9.765625 20.29296875 C8.60546875 20.25816406 7.4453125 20.22335937 6.25 20.1875 C4.1875 20.125625 2.125 20.06375 0 20 C0 13.4 0 6.8 0 0 Z " fill="#EAEAEA" transform="translate(1734,333)"/>
<path d="M0 0 C11.32 0 11.32 0 16 3 C17 4 17 4 17.1875 7.25 C17 11 17 11 15.875 13.6875 C14.70833333 16 14.70833333 16 15.875 18.3125 C16.24625 18.869375 16.6175 19.42625 17 20 C14.625 19.6875 14.625 19.6875 12 19 C11.34 18.01 10.68 17.02 10 16 C6.93443402 15.26656572 6.93443402 15.26656572 4 15 C4 16.65 4 18.3 4 20 C2.68 20 1.36 20 0 20 C0 13.4 0 6.8 0 0 Z " fill="#E4E4E5" transform="translate(1778,362)"/>
<path d="M0 0 C7.7014832 1.44934895 15.33026329 3.01641353 22.91015625 5.0078125 C38.71906061 9.13494303 53.52832018 12.28186832 70 12 C67.3336837 14.6663163 64.41926058 15.19411444 60.875 16.125 C60.235625 16.30675781 59.59625 16.48851562 58.9375 16.67578125 C50.03379569 19.05367818 43.79444095 17.966902 35.4375 14.5 C33.5990208 13.76480765 31.75911714 13.03316961 29.91796875 12.3046875 C28.96067871 11.92538086 28.00338867 11.54607422 27.01708984 11.15527344 C20.81539901 8.78058489 14.50417482 6.70268973 8.20092773 4.61523438 C7.27352783 4.30134766 6.34612793 3.98746094 5.390625 3.6640625 C4.56594727 3.39029785 3.74126953 3.1165332 2.89160156 2.83447266 C1 2 1 2 0 0 Z " fill="#F2F1F2" transform="translate(1188,218)"/>
<path d="M0 0 C12.03647687 -0.43505338 12.03647687 -0.43505338 16 3 C17.38125018 5.76250036 17.19079306 7.94731099 17 11 C16.34 11.66 15.68 12.32 15 13 C15.26676204 14.98491642 15.26676204 14.98491642 16 17 C16.33 17.99 16.66 18.98 17 20 C14.625 19.6875 14.625 19.6875 12 19 C11.34 18.01 10.68 17.02 10 16 C6.93443402 15.26656572 6.93443402 15.26656572 4 15 C4 16.65 4 18.3 4 20 C2.68 20 1.36 20 0 20 C0 13.4 0 6.8 0 0 Z " fill="#E8E8E8" transform="translate(1456,362)"/>
<path d="M0 0 C12.35310803 -0.49412432 12.35310803 -0.49412432 15.3984375 1.83203125 C17.55801309 4.75535918 17.43684817 6.43240661 17 10 C16.62875 10.86625 16.2575 11.7325 15.875 12.625 C14.70825344 14.99213253 14.70825344 14.99213253 15.875 17.3125 C16.24625 17.869375 16.6175 18.42625 17 19 C12.25 18.25 12.25 18.25 10 16 C8.01178687 15.60235737 6.01055661 15.26224651 4 15 C4 16.32 4 17.64 4 19 C2.68 19 1.36 19 0 19 C0 12.73 0 6.46 0 0 Z " fill="#ECECEC" transform="translate(1475,334)"/>
<path d="M0 0 C11.27272727 0 11.27272727 0 16 4 C16.33 4.33 16.66 4.66 17 5 C16.62056512 9.09789669 16.30694043 11.53958935 14 15 C14.99 16.65 15.98 18.3 17 20 C14.625 19.75 14.625 19.75 12 19 C10.6875 16.9375 10.6875 16.9375 10 15 C7.69 15 5.38 15 3 15 C3 16.65 3 18.3 3 20 C2.01 20 1.02 20 0 20 C0 13.4 0 6.8 0 0 Z " fill="#F2F1F2" transform="translate(1661,362)"/>
<path d="M0 0 C11.05328967 -0.60732361 11.05328967 -0.60732361 15.3125 2.125 C17 5 17 5 16.9375 8.125 C16 11 16 11 14 14 C14.99 15.65 15.98 17.3 17 19 C12.25 18.25 12.25 18.25 10 16 C8.01178687 15.60235737 6.01055661 15.26224651 4 15 C4 16.32 4 17.64 4 19 C2.68 19 1.36 19 0 19 C0 12.73 0 6.46 0 0 Z " fill="#EFEFF0" transform="translate(1796,334)"/>
<path d="M0 0 C6.51105577 0.23850021 12.49835202 0.99231981 18.75 2.875 C34.64338279 7.6482031 50.5077774 8.90117608 67 10 C63.94456182 11.54899651 60.88993551 12.90200483 57.6875 14.125 C56.78386719 14.47820312 55.88023438 14.83140625 54.94921875 15.1953125 C46.69561652 17.44728874 39.96774417 14.59984569 32.1875 11.875 C29.77865774 11.05074645 27.36980353 10.22652783 24.9609375 9.40234375 C23.78241211 8.99483887 22.60388672 8.58733398 21.38964844 8.16748047 C16.70892158 6.55532001 12.0120186 4.99382464 7.3125 3.4375 C5.87098585 2.95735506 4.42956682 2.4769244 2.98828125 1.99609375 C2.00214844 1.66738281 1.01601562 1.33867187 0 1 C0 0.67 0 0.34 0 0 Z " fill="#F3F2F3" transform="translate(1187,238)"/>
<path d="M0 0 C11.05328967 -0.60732361 11.05328967 -0.60732361 15.3125 2.125 C17 5 17 5 16.9375 8.0625 C16 11 16 11 14.8125 13.125 C13.71657775 15.05176526 13.71657775 15.05176526 14.875 17.25 C15.431875 18.11625 15.431875 18.11625 16 19 C14.68 19 13.36 19 12 19 C11.34 18.01 10.68 17.02 10 16 C6.43230448 15.26393501 6.43230448 15.26393501 3 15 C3 16.32 3 17.64 3 19 C2.01 19 1.02 19 0 19 C0 12.73 0 6.46 0 0 Z " fill="#F2F2F2" transform="translate(1659,334)"/>
<path d="M0 0 C4.39718646 1.09929662 4.79997334 1.55450729 7.25 5.0625 C8.03117187 6.16271484 8.03117187 6.16271484 8.828125 7.28515625 C9.21484375 7.85105469 9.6015625 8.41695313 10 9 C13.54893773 5.54935506 13.54893773 5.54935506 16.625 1.6875 C17.07875 1.130625 17.5325 0.57375 18 0 C18.99 0 19.98 0 21 0 C21 6.6 21 13.2 21 20 C19.68 20 18.36 20 17 20 C16.67 16.37 16.34 12.74 16 9 C14.35 11.31 12.7 13.62 11 16 C8.66475218 13.74259377 6.81294927 11.7194239 5 9 C4.67 12.63 4.34 16.26 4 20 C2.68 20 1.36 20 0 20 C0 13.4 0 6.8 0 0 Z " fill="#EDEDED" transform="translate(1572,362)"/>
<path d="M0 0 C4 4 4 4 5.75 6.0625 C12.61090943 11.97050535 21.38619967 11.64915701 30 12 C25.98441006 16.47451451 23.8448342 17.7786084 17.96484375 18.1171875 C11.5141597 18.31635099 6.11965923 17.03988641 0 15 C0 10.05 0 5.1 0 0 Z " fill="#F4F4F4" transform="translate(1233,313)"/>
<path d="M0 0 C8.32445369 1.26721032 16.45588471 2.96778166 24.625 5 C35.61716103 7.71444563 46.33572076 10.10478365 57.625 11.125 C58.53378906 11.21136719 59.44257812 11.29773438 60.37890625 11.38671875 C62.58554799 11.59576902 64.79251054 11.80013705 67 12 C67 12.33 67 12.66 67 13 C64.81462633 13.50921328 62.62657569 14.00694437 60.4375 14.5 C59.21933594 14.7784375 58.00117187 15.056875 56.74609375 15.34375 C49.31371796 16.64577204 43.77526175 15.59975341 36.77734375 13.2265625 C35.91363663 12.94275726 35.0499295 12.65895203 34.16004944 12.36654663 C31.41589043 11.46236331 28.6767456 10.54394783 25.9375 9.625 C24.0934123 9.01467743 22.24901381 8.40529303 20.40429688 7.796875 C16.28024594 6.43444263 12.15949045 5.06250833 8.04098511 3.68341064 C5.36156175 2.78622309 2.68082767 1.89298125 0 1 C0 0.67 0 0.34 0 0 Z " fill="#EFEFEF" transform="translate(1187,229)"/>
<path d="M0 0 C1.65 0 3.3 0 5 0 C7.64 5.94 10.28 11.88 13 18 C11.68 18.33 10.36 18.66 9 19 C8.67 18.34 8.34 17.68 8 17 C4.37 17 0.74 17 -3 17 C-3.33 17.66 -3.66 18.32 -4 19 C-4.99 19 -5.98 19 -7 19 C-6.4253379 14.21357393 -5.01754357 10.46211213 -2.9375 6.125 C-2.38964844 4.97257812 -1.84179688 3.82015625 -1.27734375 2.6328125 C-0.85582031 1.76398438 -0.43429687 0.89515625 0 0 Z " fill="#EBEBEB" transform="translate(1509,334)"/>
<path d="M0 0 C1.32 0 2.64 0 4 0 C4 6.6 4 13.2 4 20 C-1.78254573 18.84349085 -2.15849554 18.08832013 -5.3125 13.4375 C-6.00988281 12.42558594 -6.70726562 11.41367187 -7.42578125 10.37109375 C-7.94527344 9.58863281 -8.46476562 8.80617188 -9 8 C-9.33 11.96 -9.66 15.92 -10 20 C-10.99 20 -11.98 20 -13 20 C-13 13.73 -13 7.46 -13 1 C-8 2 -8 2 -5.98046875 4.28515625 C-4.3203125 6.85677083 -2.66015625 9.42838542 -1 12 C-0.67 8.04 -0.34 4.08 0 0 Z " fill="#EFEFEF" transform="translate(1837,333)"/>
<path d="M0 0 C2.26171875 0.00390625 2.26171875 0.00390625 5 1 C6.69891127 3.46415864 7.72500214 6.15993923 8.8125 8.9375 C9.12380859 9.67935547 9.43511719 10.42121094 9.75585938 11.18554688 C12 16.62573832 12 16.62573832 12 19 C10.68 19 9.36 19 8 19 C8 18.01 8 17.02 8 16 C4.04 16 0.08 16 -4 16 C-4.33 16.99 -4.66 17.98 -5 19 C-5.99 19 -6.98 19 -8 19 C-6.00386732 12.2813095 -3.2708579 6.19265192 0 0 Z " fill="#EDEDED" transform="translate(1781,334)"/>
<path d="M0 0 C5.28 0 10.56 0 16 0 C16 1.32 16 2.64 16 4 C12.04 4 8.08 4 4 4 C4 5.32 4 6.64 4 8 C7.63 8 11.26 8 15 8 C15 8.99 15 9.98 15 11 C11.37 11 7.74 11 4 11 C4 12.98 4 14.96 4 17 C7.96 17 11.92 17 16 17 C16 17.99 16 18.98 16 20 C10.72 20 5.44 20 0 20 C0 13.4 0 6.8 0 0 Z " fill="#E8E8E9" transform="translate(1826,362)"/>
<path d="M0 0 C1.32 0 2.64 0 4 0 C5.78177979 2.14757564 7.26020167 4.16582085 8.75 6.5 C9.16121094 7.12003906 9.57242187 7.74007813 9.99609375 8.37890625 C11.00974629 9.91117171 12.00651646 11.45458117 13 13 C13.33 8.71 13.66 4.42 14 0 C14.99 0 15.98 0 17 0 C17 6.6 17 13.2 17 20 C12 19 12 19 9.76171875 16.27734375 C9.07722656 15.17519531 8.39273437 14.07304687 7.6875 12.9375 C6.99011719 11.83277344 6.29273438 10.72804688 5.57421875 9.58984375 C5.05472656 8.73519531 4.53523438 7.88054687 4 7 C3.67 11.29 3.34 15.58 3 20 C2.01 20 1.02 20 0 20 C0 13.4 0 6.8 0 0 Z " fill="#F5F4F5" transform="translate(1416,362)"/>
<path d="M0 0 C4.95 0 9.9 0 15 0 C15 0.99 15 1.98 15 3 C11.37 3 7.74 3 4 3 C4 4.32 4 5.64 4 7 C7.3 7 10.6 7 14 7 C14 8.32 14 9.64 14 11 C10.7 11 7.4 11 4 11 C4 12.65 4 14.3 4 16 C7.96 16 11.92 16 16 16 C16 16.99 16 17.98 16 19 C10.72 19 5.44 19 0 19 C0 12.73 0 6.46 0 0 Z " fill="#E7E7E8" transform="translate(1566,334)"/>
<path d="M0 0 C1.19109375 -0.00386719 1.19109375 -0.00386719 2.40625 -0.0078125 C4.5 0.125 4.5 0.125 6.5 1.125 C6.17 2.115 5.84 3.105 5.5 4.125 C4.87351562 4.10179687 4.24703125 4.07859375 3.6015625 4.0546875 C2.78429688 4.03664063 1.96703125 4.01859375 1.125 4 C-0.09316406 3.96519531 -0.09316406 3.96519531 -1.3359375 3.9296875 C-3.71342243 3.91129949 -3.71342243 3.91129949 -5.5 6.125 C-5.84490322 10.17761287 -5.80163882 11.67254176 -3.5 15.125 C0.08357241 15.37515873 0.08357241 15.37515873 3.5 15.125 C4.16 13.805 4.82 12.485 5.5 11.125 C4.18 11.125 2.86 11.125 1.5 11.125 C1.5 9.805 1.5 8.485 1.5 7.125 C3.81 7.125 6.12 7.125 8.5 7.125 C8.8547035 10.19909699 8.99999865 13.06185037 8.5 16.125 C5.9375 18.75 5.9375 18.75 2.5 20.125 C-1.4683693 20.125 -3.86888081 19.45427958 -7.375 17.625 C-10.01491664 14.51921572 -10.46000696 12.3246914 -10.7109375 8.31640625 C-10.38957522 4.97780918 -8.92147504 3.33892004 -6.5 1.125 C-4.13386544 -0.05806728 -2.63219264 -0.00854608 0 0 Z " fill="#E8E8E8" transform="translate(1854.5,333.875)"/>
<path d="M0 0 C5 1 5 1 6.984375 3.21484375 C7.56703125 4.11332031 8.1496875 5.01179688 8.75 5.9375 C9.34296875 6.83339844 9.9359375 7.72929687 10.546875 8.65234375 C12 11 12 11 13 13 C13.33 8.71 13.66 4.42 14 0 C14.99 0 15.98 0 17 0 C17 6.27 17 12.54 17 19 C11.21745427 17.84349085 10.84150446 17.08832013 7.6875 12.4375 C6.99011719 11.42558594 6.29273438 10.41367187 5.57421875 9.37109375 C5.05472656 8.58863281 4.53523438 7.80617188 4 7 C3.67 10.96 3.34 14.92 3 19 C2.01 19 1.02 19 0 19 C0 12.73 0 6.46 0 0 Z " fill="#F8F8F8" transform="translate(1375,334)"/>
<path d="M0 0 C4.95 0 9.9 0 15 0 C15 0.99 15 1.98 15 3 C11.04 3 7.08 3 3 3 C3 4.32 3 5.64 3 7 C6.63 7 10.26 7 14 7 C14 8.32 14 9.64 14 11 C10.37 11 6.74 11 3 11 C3 12.65 3 14.3 3 16 C7.29 16 11.58 16 16 16 C16 16.99 16 17.98 16 19 C10.72 19 5.44 19 0 19 C0 12.73 0 6.46 0 0 Z " fill="#EDEDED" transform="translate(1755,334)"/>
<path d="M0 0 C4.95 0 9.9 0 15 0 C15 0.99 15 1.98 15 3 C11.04 3 7.08 3 3 3 C3 4.32 3 5.64 3 7 C6.63 7 10.26 7 14 7 C14 8.32 14 9.64 14 11 C10.37 11 6.74 11 3 11 C3 12.65 3 14.3 3 16 C6.96 16 10.92 16 15 16 C15 16.99 15 17.98 15 19 C10.05 19 5.1 19 0 19 C0 12.73 0 6.46 0 0 Z " fill="#EDEDEE" transform="translate(1603,334)"/>
<path d="M0 0 C1.17755859 0.02320313 1.17755859 0.02320313 2.37890625 0.046875 C4.4375 0.25 4.4375 0.25 6.4375 1.25 C6.1075 2.24 5.7775 3.23 5.4375 4.25 C2.4675 3.92 -0.5025 3.59 -3.5625 3.25 C-3.5625 4.57 -3.5625 5.89 -3.5625 7.25 C-2.675625 7.353125 -1.78875 7.45625 -0.875 7.5625 C2.58643819 8.2809117 4.70925148 9.0032071 7.4375 11.25 C8.002601 14.075505 7.86635836 15.49949787 6.4375 18 C3.31686902 19.95039436 0.05334546 20.39772909 -3.5625 20.25 C-6.5625 18.8125 -6.5625 18.8125 -8.5625 17.25 C-8.2325 16.59 -7.9025 15.93 -7.5625 15.25 C-4.2625 15.25 -0.9625 15.25 2.4375 15.25 C2.4375 14.26 2.4375 13.27 2.4375 12.25 C-0.5325 11.26 -3.5025 10.27 -6.5625 9.25 C-7.25 6.4375 -7.25 6.4375 -7.5625 3.25 C-5.38863059 0.18811204 -3.64847272 -0.12021327 0 0 Z " fill="#E7E7E8" transform="translate(1874.5625,333.75)"/>
<path d="M0 0 C0.90492187 0.02320313 1.80984375 0.04640625 2.7421875 0.0703125 C4.10730469 0.09738281 4.10730469 0.09738281 5.5 0.125 C6.19867187 0.14820313 6.89734375 0.17140625 7.6171875 0.1953125 C7.9471875 1.5153125 8.2771875 2.8353125 8.6171875 4.1953125 C5.6471875 3.8653125 2.6771875 3.5353125 -0.3828125 3.1953125 C-0.3828125 4.5153125 -0.3828125 5.8353125 -0.3828125 7.1953125 C0.5040625 7.2984375 1.3909375 7.4015625 2.3046875 7.5078125 C5.76612569 8.2262242 7.88893898 8.9485196 10.6171875 11.1953125 C11.3046875 13.6328125 11.3046875 13.6328125 10.6171875 16.1953125 C8.0566325 18.62783975 6.10526732 20.07957296 2.5078125 20.359375 C0.3671875 20.1953125 0.3671875 20.1953125 -3.3828125 19.1953125 C-4.0428125 17.8753125 -4.7028125 16.5553125 -5.3828125 15.1953125 C-1.7528125 15.1953125 1.8771875 15.1953125 5.6171875 15.1953125 C5.9471875 14.2053125 6.2771875 13.2153125 6.6171875 12.1953125 C5.3590625 11.9271875 4.1009375 11.6590625 2.8046875 11.3828125 C0.37862225 10.76448791 -1.27838145 10.26384538 -3.3828125 8.8828125 C-4.78082676 6.52366343 -4.72778217 4.88607591 -4.3828125 2.1953125 C-2.3828125 0.1953125 -2.3828125 0.1953125 0 0 Z " fill="#E6E6E7" transform="translate(1442.3828125,333.8046875)"/>
<path d="M0 0 C1.32 0 2.64 0 4 0 C4.06058594 1.07121094 4.12117188 2.14242188 4.18359375 3.24609375 C4.26798537 4.64324391 4.35263406 6.04037857 4.4375 7.4375 C4.47681641 8.14455078 4.51613281 8.85160156 4.55664062 9.58007812 C4.47624438 13.08690419 4.47624438 13.08690419 6 16 C9 16.16666667 9 16.16666667 12 16 C13.94090826 14.05909174 13.39919435 10.52706098 13.5625 7.9375 C13.64628906 6.64714844 13.73007813 5.35679687 13.81640625 4.02734375 C13.87699219 3.02832031 13.93757813 2.02929688 14 1 C14.99 1 15.98 1 17 1 C17.10826289 3.4178712 17.18739789 5.83087556 17.25 8.25 C17.30027344 9.27287109 17.30027344 9.27287109 17.3515625 10.31640625 C17.41871915 13.77497372 17.27990547 15.6293789 15.16796875 18.42578125 C12.35023551 20.47181098 10.47793072 20.92902182 7 21 C4.24006318 19.8082091 2.56867787 18.83340722 0.8671875 16.33984375 C-0.33999181 13.0826347 -0.18908839 10.21077328 -0.125 6.75 C-0.10695313 5.48671875 -0.08890625 4.2234375 -0.0703125 2.921875 C-0.04710937 1.95765625 -0.02390625 0.9934375 0 0 Z " fill="#EAEAEB" transform="translate(1417,333)"/>
<path d="M0 0 C1.9375 1.5 1.9375 1.5 3 3 C2.34 3.66 1.68 4.32 1 5 C-2.625 4.625 -2.625 4.625 -6 4 C-6 4.99 -6 5.98 -6 7 C-5.44570312 7.19335938 -4.89140625 7.38671875 -4.3203125 7.5859375 C-3.23363281 7.97652344 -3.23363281 7.97652344 -2.125 8.375 C-1.40570312 8.63023437 -0.68640625 8.88546875 0.0546875 9.1484375 C2 10 2 10 4 12 C3.8125 15 3.8125 15 3 18 C-0.122002 20.08133467 -0.93266989 20.2737822 -4.5 20.25 C-5.66015625 20.25773437 -5.66015625 20.25773437 -6.84375 20.265625 C-9 20 -9 20 -12 18 C-11.505 16.515 -11.505 16.515 -11 15 C-10.37351562 15.0721875 -9.74703125 15.144375 -9.1015625 15.21875 C-8.28429688 15.3115625 -7.46703125 15.404375 -6.625 15.5 C-5.81289062 15.5928125 -5.00078125 15.685625 -4.1640625 15.78125 C-2.03087175 16.03352351 -2.03087175 16.03352351 0 16 C-0.33 15.01 -0.66 14.02 -1 13 C-2.80077673 12.0534089 -2.80077673 12.0534089 -4.9375 11.4375 C-7.72850228 10.54093484 -8.87774645 10.12225355 -11 8 C-11.375 5.5625 -11.375 5.5625 -11 3 C-7.87209574 -0.62836894 -4.56171558 -0.4976417 0 0 Z " fill="#ECECEC" transform="translate(1692,362)"/>
<path d="M0 0 C0.99 0.66 1.98 1.32 3 2 C2.67 2.99 2.34 3.98 2 5 C-0.64 5 -3.28 5 -6 5 C-4.64639283 7.70721435 -3.29542607 7.77306151 -0.5 8.8125 C3.82593214 10.66844218 3.82593214 10.66844218 5.3125 13.5 C5 16 5 16 3.625 18.3125 C-0.11656966 20.71779478 -3.6542129 20.68828304 -8 20 C-8.99 19.34 -9.98 18.68 -11 18 C-10.505 16.515 -10.505 16.515 -10 15 C-9.01 15.33 -8.02 15.66 -7 16 C-4.66700175 16.03954234 -2.33291811 16.04401732 0 16 C0 15.01 0 14.02 0 13 C-0.55429688 12.80664062 -1.10859375 12.61328125 -1.6796875 12.4140625 C-2.40414063 12.15367187 -3.12859375 11.89328125 -3.875 11.625 C-4.95394531 11.24214844 -4.95394531 11.24214844 -6.0546875 10.8515625 C-8 10 -8 10 -10 8 C-10.375 5.5625 -10.375 5.5625 -10 3 C-7.02226725 -0.3213173 -4.30709925 -0.45820205 0 0 Z " fill="#F1F1F1" transform="translate(1528,362)"/>
<path d="M0 0 C2.56412763 2.42552614 3.82087126 4.08196519 4.5 7.5625 C3.81761445 10.88912957 2.75740782 12.04078918 0 14 C-3.14389944 14.44912849 -5.05480125 14.504106 -7.875 13 C-9.68498652 9.78224619 -9.67345584 6.59176448 -9 3 C-6.42262774 -0.05466342 -3.90171114 -0.78034223 0 0 Z " fill="#434143" transform="translate(1650,365)"/>
<path d="M0 0 C3.40524375 0.68104875 4.52547983 1.6479153 6.5 4.5 C6.92519574 7.96230815 7.13902633 10.3347167 5.4375 13.4375 C2.34506242 15.13335287 -0.05514741 14.93060657 -3.5 14.5 C-6.12541413 12.29803976 -6.4445448 10.88026421 -6.9375 7.5 C-6.5 4.5 -6.5 4.5 -4.8125 2.125 C-2.5 0.5 -2.5 0.5 0 0 Z " fill="#4A494B" transform="translate(1606.5,364.5)"/>
<path d="M0 0 C3.37013879 0.67402776 4.51677007 1.7087875 6.5 4.5 C7.11195145 8.1717087 6.98706506 9.78813568 4.875 12.875 C1.82214079 14.96379841 0.13031776 15.04068562 -3.5 14.5 C-5.375 13.4375 -5.375 13.4375 -6.5 11.5 C-7.004958 7.5324729 -7.11854451 5.39345318 -4.8125 2.0625 C-2.5 0.5 -2.5 0.5 0 0 Z " fill="#434143" transform="translate(1402.5,364.5)"/>
<path d="M0 0 C2.375 1.5 2.375 1.5 4 3 C3.34 3.66 2.68 4.32 2 5 C-1.625 4.625 -1.625 4.625 -5 4 C-5 4.99 -5 5.98 -5 7 C-4.36191406 7.23074219 -3.72382812 7.46148437 -3.06640625 7.69921875 C3.66114036 10.35455306 3.66114036 10.35455306 5.3125 13.5 C5 16 5 16 3.625 18.3125 C-0.11656966 20.71779478 -3.6542129 20.68828304 -8 20 C-8.99 19.34 -9.98 18.68 -11 18 C-10.505 16.515 -10.505 16.515 -10 15 C-9.01 15.33 -8.02 15.66 -7 16 C-4.66700175 16.03954234 -2.33291811 16.04401732 0 16 C0 15.01 0 14.02 0 13 C-0.55429688 12.80664062 -1.10859375 12.61328125 -1.6796875 12.4140625 C-2.40414063 12.15367187 -3.12859375 11.89328125 -3.875 11.625 C-4.95394531 11.24214844 -4.95394531 11.24214844 -6.0546875 10.8515625 C-8 10 -8 10 -10 8 C-10.375 5.5625 -10.375 5.5625 -10 3 C-7.0294951 -0.31325547 -4.3010419 -0.53763024 0 0 Z " fill="#F0EFF0" transform="translate(1855,362)"/>
<path d="M0 0 C3.40524375 0.68104875 4.52547983 1.6479153 6.5 4.5 C7 8.0625 7 8.0625 6.5 11.5 C4.27728061 14.15016543 2.8541854 14.44940209 -0.5625 14.9375 C-3.5 14.5 -3.5 14.5 -5.375 12.875 C-6.83486373 9.79306546 -6.99214954 7.87473969 -6.5 4.5 C-4.51677007 1.7087875 -3.37013879 0.67402776 0 0 Z " fill="#424042" transform="translate(1485.5,364.5)"/>
<path d="M0 0 C7 0 7 0 9.4375 1.625 C11.45932313 4.69817115 11.52755517 6.38247881 11 10 C10 12.375 10 12.375 8 14 C5.24528656 14.33686831 2.7936844 14.18319242 0 14 C0 9.38 0 4.76 0 0 Z " fill="#464446" transform="translate(1760,365)"/>
<path d="M0 0 C1.32 0 2.64 0 4 0 C4.84266711 1.74552473 5.67380038 3.4966208 6.5 5.25 C7.19609375 6.71179688 7.19609375 6.71179688 7.90625 8.203125 C9 11 9 11 9 15 C9.66 15 10.32 15 11 15 C11.268125 13.824375 11.53625 12.64875 11.8125 11.4375 C12.81447119 7.39357312 14.2659924 3.7832893 16 0 C17.32 0 18.64 0 20 0 C17.83836487 6.93998648 15.1063786 13.43117569 12 20 C10.68 20 9.36 20 8 20 C6.8529341 17.22967112 5.70729921 14.4587654 4.5625 11.6875 C4.23701172 10.90181641 3.91152344 10.11613281 3.57617188 9.30664062 C3.26357422 8.54931641 2.95097656 7.79199219 2.62890625 7.01171875 C2.34088135 6.31522217 2.05285645 5.61872559 1.75610352 4.90112305 C1.11476643 3.28856513 0.5487856 1.64635679 0 0 Z " fill="#E7E7E7" transform="translate(1804,362)"/>
<path d="M0 0 C5.94 0 11.88 0 18 0 C18 1.32 18 2.64 18 4 C15.69 4 13.38 4 11 4 C11 9.28 11 14.56 11 20 C9.68 20 8.36 20 7 20 C7 14.72 7 9.44 7 4 C4.69 4 2.38 4 0 4 C0 2.68 0 1.36 0 0 Z " fill="#E2E1E1" transform="translate(1618,362)"/>
<path d="M0 0 C1.19109375 -0.00386719 1.19109375 -0.00386719 2.40625 -0.0078125 C4.5 0.125 4.5 0.125 6.5 1.125 C6.17 2.115 5.84 3.105 5.5 4.125 C4.87351562 4.10179687 4.24703125 4.07859375 3.6015625 4.0546875 C2.78429688 4.03664063 1.96703125 4.01859375 1.125 4 C-0.09316406 3.96519531 -0.09316406 3.96519531 -1.3359375 3.9296875 C-3.71342243 3.91129949 -3.71342243 3.91129949 -5.5 6.125 C-5.83333333 9.625 -5.83333333 9.625 -5.5 13.125 C-3.68806994 15.36824836 -3.68806994 15.36824836 -1.1171875 15.3203125 C0.24019531 15.28550781 0.24019531 15.28550781 1.625 15.25 C2.53507812 15.23195313 3.44515625 15.21390625 4.3828125 15.1953125 C5.08148437 15.17210937 5.78015625 15.14890625 6.5 15.125 C6.5 16.115 6.5 17.105 6.5 18.125 C3.82207206 19.945991 2.3595082 20.1224456 -0.9375 20.0625 C-5.14827101 18.95440237 -6.75210722 17.43863542 -9.5 14.125 C-10.92662219 11.27175563 -10.81033868 9.29045451 -10.5 6.125 C-7.3858205 1.45373074 -5.52644733 -0.01794301 0 0 Z " fill="#EAEAEB" transform="translate(1630.5,333.875)"/>
<path d="M0 0 C0 1.32 0 2.64 0 4 C-3.3 4 -6.6 4 -10 4 C-10.04125 5.44375 -10.0825 6.8875 -10.125 8.375 C-10.14820313 9.18710937 -10.17140625 9.99921875 -10.1953125 10.8359375 C-10.21370051 13.21342243 -10.21370051 13.21342243 -8 15 C-5.78927023 15.24253813 -5.78927023 15.24253813 -3.375 15.125 C-2.55773438 15.10695313 -1.74046875 15.08890625 -0.8984375 15.0703125 C-0.27195312 15.04710937 0.35453125 15.02390625 1 15 C1.33 15.99 1.66 16.98 2 18 C-2.33109594 20.23117064 -5.31623988 20.33821718 -10 19 C-13.43030767 15.93461868 -14.81377742 14.04284646 -15.625 9.5 C-15.00578063 6.03237155 -14.18292027 3.71854621 -11.77734375 1.08984375 C-8.20487565 -1.10074658 -4.02487756 -0.422026 0 0 Z " fill="#EAE9EA" transform="translate(1701,334)"/>
<path d="M0 0 C0.99 0.66 1.98 1.32 3 2 C2.67 2.99 2.34 3.98 2 5 C0.906875 4.79375 -0.18625 4.5875 -1.3125 4.375 C-5.0838401 3.59653475 -5.0838401 3.59653475 -8 6 C-8.39507893 10.34586828 -8.45331002 12.32003497 -6 16 C-3.79274927 16.36362818 -3.79274927 16.36362818 -1.375 16.1875 C-0.55773438 16.16042969 0.25953125 16.13335937 1.1015625 16.10546875 C2.04128906 16.05326172 2.04128906 16.05326172 3 16 C3 16.99 3 17.98 3 19 C-0.21898839 20.60949419 -3.50946689 20.45470546 -7 20 C-9.9375 18.5625 -9.9375 18.5625 -12 16 C-13.29252053 11.69695027 -13.50440653 8.24774246 -11.8125 4.0625 C-8.29001398 0.05415384 -5.27259885 -0.44873182 0 0 Z " fill="#EEEEEF" transform="translate(1386,362)"/>
<path d="M0 0 C3.25 -0.3125 3.25 -0.3125 7 0 C9.5 2.1875 9.5 2.1875 11 5 C10.93182826 7.86321294 10.37360729 9.39807715 8.875 11.8125 C5.99131838 13.63883169 3.32254207 13.18806842 0 13 C0 8.71 0 4.42 0 0 Z " fill="#434245" transform="translate(1400,337)"/>
<path d="M0 0 C1.32 0 2.64 0 4 0 C4 5.61 4 11.22 4 17 C7.96 17 11.92 17 16 17 C16 17.99 16 18.98 16 20 C10.72 20 5.44 20 0 20 C0 13.4 0 6.8 0 0 Z " fill="#DDDDDE" transform="translate(1584,333)"/>
<path d="M0 0 C5.61 0 11.22 0 17 0 C17 0.99 17 1.98 17 3 C14.69 3 12.38 3 10 3 C10 8.28 10 13.56 10 19 C8.68 19 7.36 19 6 19 C6 13.72 6 8.44 6 3 C4.02 3 2.04 3 0 3 C0 2.01 0 1.02 0 0 Z " fill="#EEEEEE" transform="translate(1639,334)"/>
<path d="M0 0 C5.61 0 11.22 0 17 0 C17 0.99 17 1.98 17 3 C15.02 3 13.04 3 11 3 C11 8.28 11 13.56 11 19 C9.68 19 8.36 19 7 19 C7 13.72 7 8.44 7 3 C4.69 3 2.38 3 0 3 C0 2.01 0 1.02 0 0 Z " fill="#EEEEEF" transform="translate(1455,334)"/>
<path d="M0 0 C5.61 0 11.22 0 17 0 C17 0.99 17 1.98 17 3 C14.69 3 12.38 3 10 3 C10 8.61 10 14.22 10 20 C9.01 20 8.02 20 7 20 C7 14.39 7 8.78 7 3 C4.69 3 2.38 3 0 3 C0 2.01 0 1.02 0 0 Z " fill="#F3F3F3" transform="translate(1436,362)"/>
<path d="M0 0 C0.99 0 1.98 0 3 0 C3 5.61 3 11.22 3 17 C6.96 17 10.92 17 15 17 C15 17.99 15 18.98 15 20 C10.05 20 5.1 20 0 20 C0 13.4 0 6.8 0 0 Z " fill="#F6F6F6" transform="translate(1500,362)"/>
<path d="M0 0 C0.99 0 1.98 0 3 0 C3 5.28 3 10.56 3 16 C6.96 16 10.92 16 15 16 C15 16.99 15 17.98 15 19 C10.05 19 5.1 19 0 19 C0 12.73 0 6.46 0 0 Z " fill="#F3F4F4" transform="translate(1525,334)"/>
<path d="M0 0 C6.39075249 -0.36174071 6.39075249 -0.36174071 9 1.1875 C10 3 10 3 9.8125 5.5625 C9 8 9 8 7 10 C3.375 10.125 3.375 10.125 0 10 C0 6.7 0 3.4 0 0 Z " fill="#4E4D4E" transform="translate(1664,365)"/>
<path d="M0 0 C0.66 0.33 1.32 0.66 2 1 C1.505 1.7425 1.505 1.7425 1 2.5 C-0.46802416 6.17006041 -0.25477988 9.0509118 0 13 C1.78733227 15.15065784 1.78733227 15.15065784 4.0625 15.4375 C4.701875 15.623125 5.34125 15.80875 6 16 C6.33 16.99 6.66 17.98 7 19 C3.16526716 19.35671933 1.44657125 19.29771416 -1.8125 17.125 C-4.79857385 14.22424254 -4.95683819 13.43881175 -5.375 9.1875 C-5.36154915 5.49524214 -5.05146597 5.06175917 -2.5 2 C-1.675 1.34 -0.85 0.68 0 0 Z " fill="#ECECED" transform="translate(1642,363)"/>
<path d="M0 0 C6.0546875 -0.1953125 6.0546875 -0.1953125 8 0 C8.66 0.66 9.32 1.32 10 2 C9.75 5.0625 9.75 5.0625 9 8 C6.04335481 9.4783226 3.25770263 9.06032783 0 9 C0 6.03 0 3.06 0 0 Z " fill="#49484A" transform="translate(1799,337)"/>
<path d="M0 0 C6.0546875 -0.1953125 6.0546875 -0.1953125 8 0 C8.66 0.66 9.32 1.32 10 2 C9.67028521 5.29714793 9.3773161 6.6226839 7 9 C3.375 9.125 3.375 9.125 0 9 C0 6.03 0 3.06 0 0 Z " fill="#444244" transform="translate(1662,337)"/>
<path d="M0 0 C1.32 0 2.64 0 4 0 C4 6.6 4 13.2 4 20 C2.68 20 1.36 20 0 20 C0 13.4 0 6.8 0 0 Z " fill="#E8E7E8" transform="translate(1798,362)"/>
<path d="M0 0 C1.32 0 2.64 0 4 0 C4 6.6 4 13.2 4 20 C2.68 20 1.36 20 0 20 C0 13.4 0 6.8 0 0 Z " fill="#DEDDDE" transform="translate(1816,333)"/>
<path d="M0 0 C1.32 0 2.64 0 4 0 C4 6.6 4 13.2 4 20 C2.68 20 1.36 20 0 20 C0 13.4 0 6.8 0 0 Z " fill="#E8E7E8" transform="translate(1495,333)"/>
<path d="M0 0 C1.68996094 0.31710938 1.68996094 0.31710938 3.4140625 0.640625 C4.53554687 0.84171875 5.65703125 1.0428125 6.8125 1.25 C8.40964844 1.56710938 8.40964844 1.56710938 10.0390625 1.890625 C10.95300781 2.02210938 11.86695313 2.15359375 12.80859375 2.2890625 C15.0390625 2.890625 15.0390625 2.890625 17.3515625 5.765625 C19.0390625 8.890625 19.0390625 8.890625 19.0390625 11.890625 C16.24077894 11.50465485 15.2184741 11.08925927 13.2890625 8.953125 C12.0390625 6.890625 12.0390625 6.890625 12.0390625 4.890625 C11.41 4.83003906 10.7809375 4.76945313 10.1328125 4.70703125 C4.75582913 4.18066993 -0.60309277 3.58516043 -5.9609375 2.890625 C-4.05525529 0.21456062 -3.35939339 -0.12409369 0 0 Z " fill="#4D4C4D" transform="translate(1257.9609375,197.109375)"/>
<path d="M0 0 C0.33 0 0.66 0 1 0 C1 3.96 1 7.92 1 12 C0.01 12 -0.98 12 -2 12 C-2.99 13.485 -2.99 13.485 -4 15 C-5.65 11.04 -7.3 7.08 -9 3 C-6.03 3 -3.06 3 0 3 C0 2.01 0 1.02 0 0 Z " fill="#434345" transform="translate(1795,334)"/>
<path d="M0 0 C13.58109246 -0.55307616 25.78802266 0.91329807 39 4 C40.6948462 4.37969165 42.39014547 4.75736772 44.0859375 5.1328125 C44.83665527 5.2992627 45.58737305 5.46571289 46.36083984 5.63720703 C46.9017627 5.75692871 47.44268555 5.87665039 48 6 C48 6.33 48 6.66 48 7 C39.01587484 6.59290683 30.56737221 5.48938981 21.7890625 3.62109375 C18.96534731 3.15823734 16.67790978 2.9362136 13.8671875 2.97265625 C10.51690822 2.99634509 7.74928478 2.72206329 4.5 2 C3.6440625 1.814375 2.788125 1.62875 1.90625 1.4375 C1.2771875 1.293125 0.648125 1.14875 0 1 C0 0.67 0 0.34 0 0 Z " fill="#707071" transform="translate(1228,191)"/>
<path d="M0 0 C3.375 -0.125 3.375 -0.125 7 0 C9 2 9 2 9.3125 4.5 C9.1578125 5.7375 9.1578125 5.7375 9 7 C5.5647952 9.29013653 4.014669 9.17842973 0 9 C0 6.03 0 3.06 0 0 Z " fill="#3F3E40" transform="translate(1479,337)"/>
<path d="M0 0 C13.82738713 0.45634941 27.36672236 2.77090256 41 5 C39.72045898 6.51391602 39.72045898 6.51391602 38 8 C35.21709904 7.82433516 32.77603918 7.48594434 30.0625 6.9375 C29.28213379 6.7933667 28.50176758 6.6492334 27.69775391 6.50073242 C25.12771283 6.01983517 22.56402423 5.51195941 20 5 C18.12112143 4.63267089 16.24221486 4.26548499 14.36328125 3.8984375 C9.5708215 2.95461505 4.78439466 1.98384734 0 1 C0 0.67 0 0.34 0 0 Z " fill="#D9D8D9" transform="translate(1206,201)"/>
<path d="M0 0 C6.15234375 -0.09765625 6.15234375 -0.09765625 8 0 C9 1 9 1 9.125 4 C9 7 9 7 8 8 C5.32941149 8.14115161 2.67567762 8.04247107 0 8 C0 5.36 0 2.72 0 0 Z " fill="#3C3A3C" transform="translate(1782,366)"/>
<path d="M0 0 C6.15234375 -0.09765625 6.15234375 -0.09765625 8 0 C9 1 9 1 9.125 4 C9 7 9 7 8 8 C5.32941149 8.14115161 2.67567762 8.04247107 0 8 C0 5.36 0 2.72 0 0 Z " fill="#3C3B3C" transform="translate(1460,366)"/>
<path d="M0 0 C0.6875 1.625 0.6875 1.625 1 4 C-0.4375 7.25 -0.4375 7.25 -2 10 C0.64 10 3.28 10 6 10 C6.33 10.66 6.66 11.32 7 12 C5.93458984 12.07347656 5.93458984 12.07347656 4.84765625 12.1484375 C3.92855469 12.22320312 3.00945312 12.29796875 2.0625 12.375 C1.14597656 12.44460938 0.22945312 12.51421875 -0.71484375 12.5859375 C-1.46894531 12.72257812 -2.22304687 12.85921875 -3 13 C-3.33 13.66 -3.66 14.32 -4 15 C-4.99 15 -5.98 15 -7 15 C-6.47799942 9.77999416 -4.79095098 5.41286212 -2 1 C-1.34 0.67 -0.68 0.34 0 0 Z " fill="#F1F0F1" transform="translate(1509,338)"/>
<path d="M0 0 C7.02710329 -0.27289722 13.59101559 0.77687836 20.5 2 C21.60859375 2.19078125 22.7171875 2.3815625 23.859375 2.578125 C26.57400201 3.04616414 29.28742095 3.52025883 32 4 C31.01 5.485 31.01 5.485 30 7 C19.88547426 5.49273734 9.96152053 3.28008137 0 1 C0 0.67 0 0.34 0 0 Z " fill="#C7C6C8" transform="translate(1216,194)"/>
<path d="M0 0 C9.5141468 1.36946052 18.71402654 3.57244856 28 6 C27.67 6.99 27.34 7.98 27 9 C20.63569826 7.68764148 14.57878972 5.98780585 8.4375 3.875 C7.61958984 3.59785156 6.80167969 3.32070312 5.95898438 3.03515625 C3.97123432 2.36094863 1.98540651 1.68107796 0 1 C0 0.67 0 0.34 0 0 Z " fill="#DBDBDC" transform="translate(1187,229)"/>
<path d="M0 0 C0.99 0 1.98 0 3 0 C3 6.27 3 12.54 3 19 C2.01 19 1.02 19 0 19 C0 12.73 0 6.46 0 0 Z " fill="#F8F7F9" transform="translate(1679,334)"/>
<path d="M0 0 C0.99 0 1.98 0 3 0 C3 6.27 3 12.54 3 19 C2.01 19 1.02 19 0 19 C0 12.73 0 6.46 0 0 Z " fill="#FAF9FA" transform="translate(1367,334)"/>
<path d="M0 0 C0.66 0.33 1.32 0.66 2 1 C1.67 1.99 1.34 2.98 1 4 C0.39671875 3.95359375 -0.2065625 3.9071875 -0.828125 3.859375 C-6.08413333 3.52189688 -6.08413333 3.52189688 -10.5625 6 C-11.036875 6.66 -11.51125 7.32 -12 8 C-12.66 7.67 -13.32 7.34 -14 7 C-13.65557106 4.50289018 -13.15296001 3.17845335 -11.5 1.25 C-7.77144375 -0.61427813 -4.10021235 -0.41160433 0 0 Z " fill="#EEEEEE" transform="translate(1859,334)"/>
<path d="M0 0 C1.32 0 2.64 0 4 0 C4.89415055 1.74029302 5.76475178 3.4927015 6.625 5.25 C7.11226562 6.22453125 7.59953125 7.1990625 8.1015625 8.203125 C9 11 9 11 8.1484375 13.359375 C7.57996094 14.17148437 7.57996094 14.17148437 7 15 C3.69383716 11.19791273 0 5.16418515 0 0 Z " fill="#E3E2E4" transform="translate(1804,362)"/>
<path d="M0 0 C2.5625 0.1875 2.5625 0.1875 4.5625 2.1875 C4.19568342 5.12203261 3.69812754 6.05187246 1.5625 8.1875 C-1.97321429 7.65178571 -1.97321429 7.65178571 -3.4375 6.1875 C-3.5625 3.6875 -3.5625 3.6875 -3.4375 1.1875 C-2.4375 0.1875 -2.4375 0.1875 0 0 Z " fill="#96989A" transform="translate(1717.4375,355.8125)"/>
<path d="M0 0 C6.75 -0.125 6.75 -0.125 9 1 C8.67 2.65 8.34 4.3 8 6 C5.36 6 2.72 6 0 6 C0 4.02 0 2.04 0 0 Z " fill="#403F40" transform="translate(1738,344)"/>
<path d="M0 0 C0.99 0.66 1.98 1.32 3 2 C3.36328125 4.05859375 3.36328125 4.05859375 3.3125 6.4375 C3.30863281 7.21996094 3.30476563 8.00242187 3.30078125 8.80859375 C3 11 3 11 1 14 C-1.625 14.1875 -1.625 14.1875 -4 14 C-2.68 13.67 -1.36 13.34 0 13 C-0.556875 12.525625 -1.11375 12.05125 -1.6875 11.5625 C-3 9 -3 9 -2.53125 6.73046875 C-1.7563159 4.452306 -0.92542197 2.22101273 0 0 Z " fill="#3F3E40" transform="translate(1795,369)"/>
<path d="M0 0 C1.99954746 -0.04254356 4.00041636 -0.04080783 6 0 C7 1 7 1 7.125 3.5 C7 6 7 6 6 7 C3.5625 7.1875 3.5625 7.1875 1 7 C0.34 6.34 -0.32 5.68 -1 5 C-0.625 2.375 -0.625 2.375 0 0 Z " fill="#989B9C" transform="translate(1546,356)"/>
<path d="M0 0 C6.08233706 0.67581523 12.01314152 1.73638028 18 3 C17.67 4.32 17.34 5.64 17 7 C14.5391169 6.21563093 12.08149031 5.42291109 9.625 4.625 C8.92632813 4.40328125 8.22765625 4.1815625 7.5078125 3.953125 C2.2265625 2.2265625 2.2265625 2.2265625 0 0 Z " fill="#525252" transform="translate(1320,264)"/>
<path d="M0 0 C0.66 0 1.32 0 2 0 C2.99 2.97 3.98 5.94 5 9 C2.36 9 -0.28 9 -3 9 C-2.01 6.03 -1.02 3.06 0 0 Z " fill="#555555" transform="translate(1782,338)"/>
<path d="M0 0 C2.64 0.33 5.28 0.66 8 1 C8.33 2.65 8.66 4.3 9 6 C7.02 6.33 5.04 6.66 3 7 C2.01 4.69 1.02 2.38 0 0 Z " fill="#4F4F51" transform="translate(1278,198)"/>
<path d="M0 0 C1.95979427 0.28168297 3.91782378 0.57566717 5.875 0.875 C6.96554687 1.03742188 8.05609375 1.19984375 9.1796875 1.3671875 C12 2 12 2 14 4 C7.73 4 1.46 4 -5 4 C-5 3.34 -5 2.68 -5 2 C-3.35 2 -1.7 2 0 2 C0 1.34 0 0.68 0 0 Z " fill="#454346" transform="translate(1229,188)"/>
<path d="M0 0 C0 0.66 0 1.32 0 2 C2.97 2.33 5.94 2.66 9 3 C9 3.33 9 3.66 9 4 C5.37 4 1.74 4 -2 4 C-2.33 4.99 -2.66 5.98 -3 7 C-3.99 7 -4.98 7 -6 7 C-5.6875 4.625 -5.6875 4.625 -5 2 C-2 0 -2 0 0 0 Z " fill="#F4F4F4" transform="translate(1779,346)"/>
<path d="M0 0 C2 1 2 1 3.125 3.375 C4 6 4 6 4 9 C1.69 9 -0.62 9 -3 9 C-2.01 6.03 -1.02 3.06 0 0 Z " fill="#474747" transform="translate(1511,338)"/>
<path d="M0 0 C2.43929614 0.45005464 4.87611777 0.90964876 7.3125 1.375 C8.34793945 1.56449219 8.34793945 1.56449219 9.40429688 1.7578125 C12.83703314 2.42114318 15.05246458 3.03497639 18 5 C17.34 5.66 16.68 6.32 16 7 C13.51764563 6.21735638 11.03943904 5.42444723 8.5625 4.625 C7.85544922 4.40328125 7.14839844 4.1815625 6.41992188 3.953125 C4.5937811 3.35897394 2.79422968 2.68450381 1 2 C0.67 1.34 0.34 0.68 0 0 Z " fill="#E5E4E7" transform="translate(1188,218)"/>
<path d="M0 0 C5.625 -0.25 5.625 -0.25 9 2 C8.67 2.99 8.34 3.98 8 5 C5.36 4.67 2.72 4.34 0 4 C0 2.68 0 1.36 0 0 Z " fill="#E2E2E3" transform="translate(1522,362)"/>
<path d="M0 0 C0.99 0.33 1.98 0.66 3 1 C3 3.31 3 5.62 3 8 C1.02 8.33 -0.96 8.66 -3 9 C-2.01 8.67 -1.02 8.34 0 8 C-0.2784375 6.2984375 -0.2784375 6.2984375 -0.5625 4.5625 C-0.706875 3.386875 -0.85125 2.21125 -1 1 C-0.67 0.67 -0.34 0.34 0 0 Z " fill="#3E3D3F" transform="translate(1793,345)"/>
<path d="M0 0 C0.33 0 0.66 0 1 0 C1 6.93836897 0.30181665 12.40145893 -2 19 C-2.33 19 -2.66 19 -3 19 C-3.45510807 12.32508169 -1.7672426 6.40625443 0 0 Z " fill="#533E3F" transform="translate(1859,284)"/>
<path d="M0 0 C1.64767247 0.28109113 3.29313145 0.57518526 4.9375 0.875 C5.85402344 1.03742188 6.77054688 1.19984375 7.71484375 1.3671875 C8.46894531 1.57601562 9.22304687 1.78484375 10 2 C10.33 2.66 10.66 3.32 11 4 C5.84828377 4.09038099 1.08086796 3.84681133 -4 3 C-2.68 2.67 -1.36 2.34 0 2 C0 1.34 0 0.68 0 0 Z " fill="#414042" transform="translate(1245,195)"/>
<path d="M0 0 C0.33 0.99 0.66 1.98 1 3 C2.32 2.67 3.64 2.34 5 2 C4.67 3.98 4.34 5.96 4 8 C2.68 8 1.36 8 0 8 C-1.125 2.25 -1.125 2.25 0 0 Z " fill="#F6F6F6" transform="translate(1812,374)"/>
<path d="M0 0 C2.31 0 4.62 0 7 0 C7 1.32 7 2.64 7 4 C4.69 4 2.38 4 0 4 C0 2.68 0 1.36 0 0 Z " fill="#4A4A4A" transform="translate(1738,337)"/>
<path d="M0 0 C4.95 0.33 9.9 0.66 15 1 C13.68 1.33 12.36 1.66 11 2 C11 2.66 11 3.32 11 4 C9.35232753 3.71890887 7.70686855 3.42481474 6.0625 3.125 C4.68771484 2.88136719 4.68771484 2.88136719 3.28515625 2.6328125 C2.53105469 2.42398438 1.77695313 2.21515625 1 2 C0.67 1.34 0.34 0.68 0 0 Z " fill="#EAE9EA" transform="translate(1245,199)"/>
<path d="M0 0 C1.98 0.66 3.96 1.32 6 2 C5.67 3.32 5.34 4.64 5 6 C2.69 6 0.38 6 -2 6 C-1.01 5.67 -0.02 5.34 1 5 C0.67 3.35 0.34 1.7 0 0 Z " fill="#504F51" transform="translate(1523,373)"/>
<path d="M0 0 C1.93816735 0.1141866 3.87555099 0.24173423 5.8125 0.375 C6.89144531 0.44460937 7.97039062 0.51421875 9.08203125 0.5859375 C12 1 12 1 15 3 C8.94474232 4.38766322 5.67989374 3.49118146 0 1 C0 0.67 0 0.34 0 0 Z " fill="#CCCBCD" transform="translate(1187,238)"/>
<path d="M0 0 C0.33 0 0.66 0 1 0 C0.67 4.95 0.34 9.9 0 15 C-0.33 15 -0.66 15 -1 15 C-1.33 12.36 -1.66 9.72 -2 7 C-2.99 7.495 -2.99 7.495 -4 8 C-3.4021799 4.65220745 -2.20964398 2.57791798 0 0 Z " fill="#503537" transform="translate(1543,231)"/>
<path d="M0 0 C1 2 1 2 0.375 5.4375 C-1 9 -1 9 -3.5 11 C-4.325 11.33 -5.15 11.66 -6 12 C-6.66 11.67 -7.32 11.34 -8 11 C-5.36 7.37 -2.72 3.74 0 0 Z " fill="#523637" transform="translate(1461,227)"/>
<path d="M0 0 C2.31 0 4.62 0 7 0 C7.33 1.32 7.66 2.64 8 4 C5.03 3.67 2.06 3.34 -1 3 C-0.67 2.01 -0.34 1.02 0 0 Z " fill="#F0F0EF" transform="translate(1443,334)"/>
<path d="M0 0 C3.03869411 1.51934706 3.64410306 3.98004772 5 7 C5 7.66 5 8.32 5 9 C3.68 9.33 2.36 9.66 1 10 C0.814375 8.88625 0.814375 8.88625 0.625 7.75 C0.04513299 5.19858515 -0.73708739 3.2732427 -2 1 C-1.34 0.67 -0.68 0.34 0 0 Z " fill="#4C4B4D" transform="translate(1327,228)"/>
<path d="M0 0 C0 0.33 0 0.66 0 1 C-1.423125 1.12375 -1.423125 1.12375 -2.875 1.25 C-6.10461791 1.65074923 -6.10461791 1.65074923 -7.375 4.0625 C-7.58125 4.701875 -7.7875 5.34125 -8 6 C-9.65 6 -11.3 6 -13 6 C-8.68466989 0.39007086 -7.09208573 -0.13133492 0 0 Z " fill="#E4E4E3" transform="translate(1610,362)"/>
<path d="M0 0 C2.64 0.66 5.28 1.32 8 2 C7.01 2.495 7.01 2.495 6 3 C6 3.66 6 4.32 6 5 C3.03 4.505 3.03 4.505 0 4 C0 2.68 0 1.36 0 0 Z " fill="#E9E9E9" transform="translate(1845,377)"/>
<path d="M0 0 C0.66 0.33 1.32 0.66 2 1 C2 1.99 2 2.98 2 4 C1.34 4 0.68 4 0 4 C0 4.66 0 5.32 0 6 C-0.99 6.33 -1.98 6.66 -3 7 C-3.66 7.66 -4.32 8.32 -5 9 C-4.5206753 4.68607774 -3.2542015 2.83430453 0 0 Z " fill="#E4E3E3" transform="translate(1397,363)"/>
<path d="M0 0 C2.64 0.66 5.28 1.32 8 2 C6.3125 3.625 6.3125 3.625 4 5 C1.25 4.1875 1.25 4.1875 -1 3 C-0.67 2.01 -0.34 1.02 0 0 Z " fill="#E1E0E1" transform="translate(1681,377)"/>
<path d="M0 0 C2.64 0.66 5.28 1.32 8 2 C6.8125 3.5625 6.8125 3.5625 5 5 C2.3125 4.6875 2.3125 4.6875 0 4 C0 2.68 0 1.36 0 0 Z " fill="#EBEAEB" transform="translate(1518,377)"/>
<path d="M0 0 C6.75 -0.125 6.75 -0.125 9 1 C8.67 1.99 8.34 2.98 8 4 C3.545 3.01 3.545 3.01 -1 2 C-0.67 1.34 -0.34 0.68 0 0 Z " fill="#F2F2F2" transform="translate(1872,334)"/>
<path d="M0 0 C3.375 -0.125 3.375 -0.125 7 0 C7.66 0.66 8.32 1.32 9 2 C8.34 2.66 7.68 3.32 7 4 C3.375 3.625 3.375 3.625 0 3 C0 2.01 0 1.02 0 0 Z " fill="#F5F4F6" transform="translate(1686,363)"/>
<path d="M0 0 C0.33 0.66 0.66 1.32 1 2 C-1.31537955 5.72114571 -3.28579473 8.61229661 -7 11 C-5.5140084 6.40693504 -3.14985318 3.56430755 0 0 Z " fill="#523839" transform="translate(1437,261)"/>
<path d="M0 0 C1.90318884 2.85478326 2.4619099 4.41941308 3.125 7.6875 C3.29257813 8.49574219 3.46015625 9.30398437 3.6328125 10.13671875 C3.75398438 10.75160156 3.87515625 11.36648437 4 12 C1.72118987 9.78379454 0.07305653 8.04032685 -1 5 C-0.625 2.25 -0.625 2.25 0 0 Z " fill="#D8D7DA" transform="translate(1332,230)"/>
<path d="M0 0 C0 3.97054597 -1.3139381 5.16471244 -4 8 C-6.140625 8.6484375 -6.140625 8.6484375 -8 9 C-7.04663979 7.68388323 -6.08714226 6.37221039 -5.125 5.0625 C-4.59132813 4.33160156 -4.05765625 3.60070312 -3.5078125 2.84765625 C-2 1 -2 1 0 0 Z " fill="#4E3D40" transform="translate(1776,218)"/>
<path d="M0 0 C0 0.66 0 1.32 0 2 C-0.99 2.33 -1.98 2.66 -3 3 C-4.44870619 4.85804317 -4.44870619 4.85804317 -5.6875 7.0625 C-6.12449219 7.79597656 -6.56148437 8.52945313 -7.01171875 9.28515625 C-7.50091797 10.13400391 -7.50091797 10.13400391 -8 11 C-8.33 10.34 -8.66 9.68 -9 9 C-7.27522663 4.73345534 -5.19572985 0 0 0 Z " fill="#54393C" transform="translate(1707,211)"/>
<path d="M0 0 C2.31 0 4.62 0 7 0 C7 1.32 7 2.64 7 4 C4.69 3.67 2.38 3.34 0 3 C0 2.01 0 1.02 0 0 Z " fill="#F4F4F5" transform="translate(1381,363)"/>
<path d="M0 0 C2.31 0 4.62 0 7 0 C7 1.32 7 2.64 7 4 C4.36 3.34 1.72 2.68 -1 2 C-0.67 1.34 -0.34 0.68 0 0 Z " fill="#F7F6F6" transform="translate(1694,334)"/>
<path d="M0 0 C0 3.58912412 -0.66436554 4.10857029 -3 6.6875 C-3.556875 7.31011719 -4.11375 7.93273437 -4.6875 8.57421875 C-5.120625 9.04472656 -5.55375 9.51523438 -6 10 C-6.66 9.67 -7.32 9.34 -8 9 C-5.36 6.03 -2.72 3.06 0 0 Z " fill="#553F41" transform="translate(1901,215)"/>
<path d="M0 0 C0.99 0 1.98 0 3 0 C3 2.64 3 5.28 3 8 C2.34 8 1.68 8 1 8 C0.67 5.36 0.34 2.72 0 0 Z " fill="#595959" transform="translate(1181,257)"/>
<path d="M0 0 C0.66 0 1.32 0 2 0 C1.4409112 3.24271506 0.5867822 4.93057424 -2 7 C-2.66 7 -3.32 7 -4 7 C-2.92598892 4.08482708 -2.22189824 2.22189824 0 0 Z " fill="#9C2531" transform="translate(1729,281)"/>
</svg>
