<?xml version="1.0" encoding="UTF-8"?>
<svg version="1.1" xmlns="http://www.w3.org/2000/svg" width="1100" height="476">
<path d="M0 0 C12.54 0 25.08 0 38 0 C38.8556207 7.0831604 39.71000715 14.16646302 40.5625 21.25 C40.69361176 22.33913696 40.82472351 23.42827393 40.95980835 24.55041504 C42.64000049 38.52017562 44.29723242 52.49243177 45.921875 66.46875 C46.00113157 67.15023857 46.08038815 67.83172714 46.16204643 68.53386688 C46.86820057 74.60654128 47.5737357 80.67928625 48.27468872 86.75256348 C48.70931969 90.51746806 49.1456029 94.28217842 49.58203125 98.046875 C49.71095764 99.16976929 49.83988403 100.29266357 49.97271729 101.44958496 C50.53869326 106.32303125 51.11825589 111.17107739 52 116 C52.34144043 115.49251221 52.68288086 114.98502441 53.03466797 114.4621582 C64.32208995 97.72387566 64.32208995 97.72387566 70 90.5 C74.07326509 85.31584443 77.80962305 79.96250721 81.5 74.5 C85.95748739 67.90470502 90.57312828 61.5509565 95.484375 55.28515625 C98.92060401 50.85372779 102.10769319 46.24648279 105.32397461 41.65454102 C109.04679471 36.34122867 112.8193071 31.06675367 116.625 25.8125 C120.65986504 20.23910924 124.68716756 14.66074712 128.6875 9.0625 C129.09758301 8.48927002 129.50766602 7.91604004 129.93017578 7.32543945 C131.65749817 4.90549249 133.35053686 2.47419471 135 0 C137.83727325 -0.26667539 140.45383045 -0.34791234 143.2890625 -0.29296875 C144.10748627 -0.28872391 144.92591003 -0.28447906 145.76913452 -0.28010559 C148.38808836 -0.26328679 151.00627802 -0.22562974 153.625 -0.1875 C155.3984264 -0.17245726 157.17186484 -0.15876814 158.9453125 -0.14648438 C163.2971703 -0.11337292 167.64845551 -0.06156952 172 0 C172 1.65 172 3.3 172 5 C169.28774409 6.35612795 166.76663413 6.32884642 163.75 6.625 C158.03171492 7.46260715 158.03171492 7.46260715 153.5 10.75 C146.15342395 22.06782684 143.41255215 37.39498802 139.67578125 50.2109375 C139.08268605 52.23451792 138.48927091 54.2580046 137.89555359 56.28140259 C136.66018835 60.49464849 135.42751342 64.70866815 134.19702148 68.92333984 C132.62405571 74.31084976 131.04606606 79.69687138 129.46629047 85.08238792 C128.24414611 89.24964933 127.02375329 93.41742191 125.80397606 97.58537674 C125.22262563 99.57169829 124.64094626 101.5579236 124.05892372 103.54404831 C123.24638389 106.31844049 122.43598595 109.09344926 121.6262207 111.86865234 C121.27008446 113.08291901 121.27008446 113.08291901 120.90675354 114.32171631 C117.44946761 124.99438069 117.44946761 124.99438069 117 136 C118.57172981 139.07858016 118.57172981 139.07858016 122 141 C126.30555951 142.00080802 130.6037403 142.56874173 135 143 C134.67 144.65 134.34 146.3 134 148 C113.21 148 92.42 148 71 148 C71.33 146.35 71.66 144.7 72 143 C72.88042969 142.89042969 73.76085937 142.78085938 74.66796875 142.66796875 C75.82941406 142.50941406 76.99085938 142.35085937 78.1875 142.1875 C79.33605469 142.03667969 80.48460937 141.88585937 81.66796875 141.73046875 C86.43950549 140.68442259 88.99998327 139.32301567 91.9622345 135.40397644 C94.24317095 131.59379616 95.602592 127.9495563 96.9284668 123.7355957 C97.1830878 122.94848111 97.4377088 122.16136652 97.70004559 121.35039997 C100.36452679 113.02998585 102.77740533 104.63933078 105.14453125 96.23046875 C105.60407842 94.60898788 106.06393934 92.98759591 106.52409363 91.36628723 C107.47524644 88.01175509 108.42368436 84.65647275 109.36987305 81.30053711 C110.58052788 77.00689741 111.79664437 72.71482814 113.01456165 68.42324352 C113.95894744 65.09426698 114.90129037 61.76471509 115.84293175 58.43496132 C116.29101738 56.85083734 116.73954981 55.26683967 117.18854713 53.68297386 C117.81231026 51.48084749 118.43350662 49.27801341 119.05395508 47.07495117 C119.40669998 45.82574387 119.75944489 44.57653656 120.12287903 43.28947449 C120.85775774 40.5334524 121.48444963 37.80387298 122 35 C121.67427002 35.45101074 121.34854004 35.90202148 121.01293945 36.36669922 C120.02158061 37.73934992 119.03020526 39.11198871 118.03881836 40.48461914 C116.87154498 42.10090731 115.70439331 43.71728339 114.53735352 45.33374023 C111.5823616 49.42633096 108.62584311 53.51778764 105.6640625 57.60546875 C100.40024747 64.87428196 95.1638492 72.15975075 90 79.5 C84.28208009 87.62784334 78.47175905 95.68666044 72.64111328 103.73388672 C69.38738999 108.22675485 66.14184881 112.72553741 62.89501953 117.22338867 C60.07785553 121.12529326 57.25789009 125.02512908 54.43359375 128.921875 C53.84835937 129.73011719 53.263125 130.53835937 52.66015625 131.37109375 C51.54518372 132.91081772 50.42935437 134.44992175 49.3125 135.98828125 C48.80589844 136.68824219 48.29929687 137.38820312 47.77734375 138.109375 C47.05393799 139.0984082 47.05393799 139.0984082 46.31591797 140.10742188 C44.98760584 141.95612068 44.98760584 141.95612068 43.95361328 143.84570312 C43.00390625 145.515625 43.00390625 145.515625 41 148 C37.87475586 148.15527344 37.87475586 148.15527344 35 148 C34.14113321 141.10474467 33.28771164 134.20882783 32.4375 127.3125 C32.30638824 126.24964783 32.17527649 125.18679565 32.04019165 124.09173584 C30.32496989 110.15784148 28.6663883 96.21840106 27.078125 82.26953125 C26.99886843 81.57417833 26.91961185 80.87882542 26.83795357 80.1624012 C26.05226329 73.26692126 25.27035779 66.37103566 24.49770546 59.47408199 C24.13999093 56.28716065 23.77852177 53.10066378 23.41796875 49.9140625 C23.28904236 48.7506282 23.16011597 47.58719391 23.02728271 46.38850403 C22.90637268 45.32395493 22.78546265 44.25940582 22.66088867 43.16259766 C22.55685226 42.23339508 22.45281586 41.3041925 22.34562683 40.34683228 C22.04823134 37.85364741 22.04823134 37.85364741 21 35 C17.62651439 46.7956216 14.25373942 58.59144613 10.88187504 70.38753128 C9.31621316 75.86473704 7.75030529 81.34187222 6.18383789 86.81884766 C4.67251723 92.10304284 3.16183929 97.38742137 1.65160942 102.67192841 C1.07491446 104.68943596 0.49798675 106.706877 -0.07917595 108.72425079 C-0.88664957 111.54678648 -1.69330025 114.36955612 -2.49975586 117.19238281 C-2.73927979 118.02891891 -2.97880371 118.86545502 -3.22558594 119.7273407 C-3.44572861 120.49852737 -3.66587128 121.26971405 -3.89268494 122.06427002 C-4.17890166 123.0653372 -4.17890166 123.0653372 -4.47090054 124.08662796 C-5.70293338 128.54200421 -6.3406933 132.31546712 -6 137 C-3.59770152 140.52223123 -0.31447201 140.85540681 3.6875 141.6875 C4.86699219 141.93886719 6.04648438 142.19023437 7.26171875 142.44921875 C8.16535156 142.63097656 9.06898438 142.81273437 10 143 C9.67 144.65 9.34 146.3 9 148 C-7.5 148 -24 148 -41 148 C-40.67 146.35 -40.34 144.7 -40 143 C-39.13117188 142.90203125 -38.26234375 142.8040625 -37.3671875 142.703125 C-28.40476641 141.72387188 -28.40476641 141.72387188 -21 137 C-17.63688656 130.96250145 -15.52407352 124.8769389 -13.55859375 118.26953125 C-13.22548691 117.16841507 -12.89238007 116.06729889 -12.54917908 114.93281555 C-11.35372807 110.95879725 -10.17386584 106.98043651 -9 103 C-8.7682029 102.21409233 -8.53640579 101.42818466 -8.29758453 100.61846161 C-4.47202701 87.6351764 -0.69213503 74.63869613 3.08007812 61.63983154 C4.23586621 57.66014579 5.39474792 53.68136345 6.55358028 49.70256329 C7.67460243 45.85202961 8.79364391 42.00092254 9.91208076 38.14963722 C10.44372533 36.31984361 10.97598808 34.4902295 11.50889397 32.66080284 C12.24745412 30.12430418 12.98333379 27.58704295 13.71850586 25.04956055 C13.93611069 24.30422058 14.15371552 23.55888062 14.37791443 22.79095459 C15.4109914 19.21476498 16.34396282 15.66541132 17 12 C13.20749425 8.54317743 10.19617769 7.26185408 5.1875 6.25 C4.02605469 6.00765625 2.86460937 5.7653125 1.66796875 5.515625 C0.78753906 5.34546875 -0.09289062 5.1753125 -1 5 C-0.67 3.35 -0.34 1.7 0 0 Z " fill="#FFFFFF" transform="translate(210,82)"/>
<path d="M0 0 C10.19255436 9.96605315 15.78521468 23.19385865 16.10498047 37.38598633 C16.34153267 67.53485298 3.54071653 95.89981282 -17.375 117.4375 C-34.59421457 134.53299881 -57.41606997 143.00970712 -81.50317383 142.9987793 C-95.68233735 142.81926352 -106.70747463 138.66085984 -117.1171875 128.9765625 C-127.11474763 118.22446953 -131.52666149 102.7540851 -131.16625977 88.32397461 C-130.06005819 63.54766219 -119.06363229 41.41857453 -103.1875 22.75 C-102.30191406 21.64591797 -102.30191406 21.64591797 -101.3984375 20.51953125 C-77.06358028 -8.7340737 -32.70289738 -23.08439815 0 0 Z M-80.1875 19.75 C-98.73121209 43.03978095 -109.77580236 74.96511055 -107.1875 104.75 C-105.16635626 115.90074187 -100.50514826 124.83646971 -91.3125 131.55859375 C-83.38097598 136.005496 -73.80659565 135.99397589 -65.08203125 134.0625 C-44.4738729 127.08653667 -30.77038271 108.67433963 -21.27099609 89.98779297 C-15.33307292 77.72393451 -10.91561262 65.09771486 -8.1875 51.75 C-7.99671875 50.821875 -7.8059375 49.89375 -7.609375 48.9375 C-5.76062908 34.9691975 -5.72214466 20.20848051 -14.0625 8.3125 C-19.6178545 1.61829783 -25.54459848 -2.68570985 -34.390625 -3.5703125 C-53.58243787 -4.20440323 -68.13036412 5.53013076 -80.1875 19.75 Z " fill="#FFFFFF" transform="translate(853.1875,90.25)"/>
<path d="M0 0 C0.78898682 0.03585205 1.57797363 0.0717041 2.39086914 0.10864258 C2.53262356 7.89091129 2.12096359 15.50295755 1.36523438 23.24609375 C1.20189102 24.98487038 1.20189102 24.98487038 1.0352478 26.7587738 C0.80008218 29.25627802 0.56264691 31.75356938 0.32314873 34.25066185 C-0.0557502 38.20603142 -0.4278231 42.16200992 -0.79759216 46.11824036 C-1.78316812 56.64921222 -2.77939571 67.17916991 -3.78194135 77.70853931 C-4.44235209 84.64488355 -5.09778802 91.5816576 -5.74385685 98.51935369 C-6.05018641 101.80523836 -6.36094929 105.09061113 -6.67770576 108.37550926 C-7.03060962 112.03610738 -7.3728876 115.69755935 -7.71289062 119.359375 C-7.81934402 120.43541992 -7.92579742 121.51146484 -8.03547668 122.62011719 C-9.177942 132.49194592 -9.177942 132.49194592 -5.92163086 141.48364258 C-1.23205403 144.77902089 3.79062704 145.43661353 9.39086914 146.10864258 C9.06086914 147.75864258 8.73086914 149.40864258 8.39086914 151.10864258 C-11.07913086 151.10864258 -30.54913086 151.10864258 -50.60913086 151.10864258 C-50.27913086 149.45864258 -49.94913086 147.80864258 -49.60913086 146.10864258 C-48.80088867 146.01067383 -47.99264648 145.91270508 -47.15991211 145.81176758 C-38.92543986 144.92439138 -38.92543986 144.92439138 -32.60913086 140.10864258 C-29.15946793 132.67151212 -28.67561787 124.60103109 -27.92163086 116.54614258 C-27.72730469 114.60384766 -27.72730469 114.60384766 -27.52905273 112.62231445 C-27.21317907 109.45187878 -26.90679271 106.28083102 -26.60913086 103.10864258 C-49.31746001 100.77982696 -49.31746001 100.77982696 -70.81225586 105.84350586 C-75.4221847 110.03820214 -78.13165142 115.08399308 -80.56420898 120.76538086 C-82.00028012 123.98580393 -83.91395208 126.57267139 -85.98413086 129.42114258 C-88.47924551 133.13923214 -89.02137506 135.62317957 -88.60913086 140.10864258 C-85.75829454 144.21384688 -82.34844161 145.01495548 -77.60913086 146.10864258 C-77.93913086 147.75864258 -78.26913086 149.40864258 -78.60913086 151.10864258 C-93.45913086 151.10864258 -108.30913086 151.10864258 -123.60913086 151.10864258 C-123.27913086 149.45864258 -122.94913086 147.80864258 -122.60913086 146.10864258 C-121.98006836 145.96168945 -121.35100586 145.81473633 -120.70288086 145.66333008 C-102.51274202 140.89663707 -92.6143436 122.96482411 -82.30932617 108.48217773 C-79.46877399 104.51666247 -76.57070906 100.59397167 -73.67163086 96.67114258 C-73.09050537 95.88400879 -72.50937988 95.096875 -71.91064453 94.28588867 C-70.73244592 92.690313 -69.55397881 91.09493556 -68.37524414 89.49975586 C-65.44956983 85.53873095 -62.5296278 81.57348541 -59.60913086 77.60864258 C-58.44249196 76.02528879 -57.27582528 74.44195546 -56.10913086 72.85864258 C-55.24288086 71.68301758 -55.24288086 71.68301758 -54.35913086 70.48364258 C-35.10913086 44.35864258 -35.10913086 44.35864258 -33.35766602 41.98168945 C-32.19583771 40.40489929 -31.03405356 38.82807659 -29.87231445 37.2512207 C-26.88198979 33.1925033 -23.89080355 29.13442515 -20.89819336 25.07739258 C-19.98444946 23.83759644 -19.98444946 23.83759644 -19.05224609 22.57275391 C-17.8558739 20.95129767 -16.65752106 19.33130064 -15.45703125 17.71289062 C-12.95651888 14.33546866 -10.47904522 10.95596365 -8.12866211 7.47192383 C-7.4415918 6.46516602 -6.75452148 5.4584082 -6.04663086 4.42114258 C-5.4884668 3.57165039 -4.93030273 2.7221582 -4.35522461 1.84692383 C-2.60913086 0.10864258 -2.60913086 0.10864258 0 0 Z M-20.60913086 39.10864258 C-21.53430749 40.24308307 -22.41469321 41.41406195 -23.27709961 42.59692383 C-23.83349121 43.35642334 -24.38988281 44.11592285 -24.96313477 44.8984375 C-25.56818848 45.73093018 -26.17324219 46.56342285 -26.79663086 47.42114258 C-28.0791215 49.17379171 -29.36167533 50.9263946 -30.64428711 52.67895508 C-31.30315918 53.58162109 -31.96203125 54.48428711 -32.64086914 55.41430664 C-35.66153422 59.54926816 -38.69700477 63.67326413 -41.73413086 67.79614258 C-42.30558838 68.57304443 -42.8770459 69.34994629 -43.46582031 70.15039062 C-46.34286949 74.05650207 -49.23528347 77.94989843 -52.15600586 81.82348633 C-52.71658691 82.56703369 -53.27716797 83.31058105 -53.85473633 84.07666016 C-54.91918803 85.48577475 -55.98582739 86.89324018 -57.05493164 88.29882812 C-59.49264378 90.94613769 -59.49264378 90.94613769 -60.60913086 94.10864258 C-49.05913086 94.10864258 -37.50913086 94.10864258 -25.60913086 94.10864258 C-24.40000108 86.24929902 -23.25407727 78.54452098 -22.53881836 70.65161133 C-22.40988693 69.28085197 -22.40988693 69.28085197 -22.27835083 67.88240051 C-22.00999872 65.02063771 -21.74695582 62.1584177 -21.48413086 59.29614258 C-21.30089176 57.33191675 -21.11730065 55.36772373 -20.93334961 53.40356445 C-20.48788762 48.63895867 -20.04717946 43.87393542 -19.60913086 39.10864258 C-19.93913086 39.10864258 -20.26913086 39.10864258 -20.60913086 39.10864258 Z " fill="#FFFFFF" transform="translate(471.609130859375,78.891357421875)"/>
<path d="M0 0 C18.15 0 36.3 0 55 0 C54.67 1.65 54.34 3.3 54 5 C51.5899508 6.2050246 49.81021258 6.17306018 47.125 6.3125 C43.93394683 6.63068305 42.18981723 6.89153301 39.375 8.5 C36.43082342 13.85304832 37.83307665 20.44034596 39.44770813 26.09947205 C39.65703476 26.78723221 39.86636139 27.47499237 40.08203125 28.18359375 C40.29687668 28.92400406 40.51172211 29.66441437 40.733078 30.42726135 C41.41500167 32.76747173 42.11339075 35.1023734 42.8125 37.4375 C43.269978 38.99772541 43.72636648 40.55827071 44.18164062 42.11914062 C45.4389474 46.41743107 46.71566228 50.70971898 48 55 C48.32790527 56.09715332 48.65581055 57.19430664 48.99365234 58.32470703 C49.6603176 60.55045187 50.32865243 62.77566397 51 65 C51.66 65 52.32 65 53 65 C54.31740238 63.570328 54.31740238 63.570328 55.6171875 61.66015625 C56.39497559 60.57299316 56.39497559 60.57299316 57.18847656 59.46386719 C58.02330566 58.27519043 58.02330566 58.27519043 58.875 57.0625 C59.45217773 56.25071289 60.02935547 55.43892578 60.62402344 54.60253906 C61.82807169 52.90714979 63.0291963 51.20968076 64.22753906 49.51025391 C65.87948593 47.17067847 67.54279282 44.83976032 69.2109375 42.51171875 C72.17534372 38.3649417 75.10122326 34.19289168 78 30 C78.45487793 29.34418945 78.90975586 28.68837891 79.37841797 28.01269531 C80.66428608 26.14379384 81.92939356 24.26267067 83.1875 22.375 C83.90292969 21.31023437 84.61835937 20.24546875 85.35546875 19.1484375 C87.16018902 15.69331982 87.67411698 12.86195703 88 9 C84.9530371 7.30566082 82.17178534 6.50532888 78.75 5.875 C77.41195312 5.62363281 77.41195312 5.62363281 76.046875 5.3671875 C75.37140625 5.24601562 74.6959375 5.12484375 74 5 C74.33 3.35 74.66 1.7 75 0 C90.51 0 106.02 0 122 0 C121.67 1.65 121.34 3.3 121 5 C120.01 5.2475 119.02 5.495 118 5.75 C106.00317655 9.25713589 99.48840638 16.90912025 92.375 26.8125 C91.47213257 28.05374634 91.47213257 28.05374634 90.55102539 29.32006836 C88.69449014 31.8756259 86.84669243 34.43732405 85 37 C83.88710987 38.53674165 82.77384256 40.07321025 81.66015625 41.609375 C78.98185151 45.30767889 76.31172441 49.01180209 73.64404297 52.71777344 C70.23533689 57.44966895 66.81669523 62.17440031 63.40014648 66.90063477 C62.64519897 67.94562134 62.64519897 67.94562134 61.875 69.01171875 C61.22144531 69.91603638 61.22144531 69.91603638 60.5546875 70.83862305 C59.78511719 71.90850464 59.78511719 71.90850464 59 73 C58.18370117 74.02826904 57.36740234 75.05653809 56.52636719 76.1159668 C53.44529831 80.44691475 52.12628631 85.05882325 50.703125 90.1328125 C50.42402283 91.08767548 50.14492065 92.04253845 49.85736084 93.02633667 C48.97547858 96.0556973 48.11276099 99.09014537 47.25 102.125 C46.65614815 104.17092168 46.06110734 106.21649865 45.46484375 108.26171875 C44.37878165 112.00730348 43.29458779 115.75334444 42.22753906 119.50439453 C42.01389709 120.25383331 41.80025513 121.00327209 41.58013916 121.77542114 C40.55254206 125.71580466 39.82050511 129.55084353 39.6875 133.625 C39.63142578 134.75808594 39.63142578 134.75808594 39.57421875 135.9140625 C39.83468873 138.12236568 39.83468873 138.12236568 41.59765625 139.69921875 C44.64612978 141.34985564 47.31893676 141.74146178 50.75 142.1875 C51.92046875 142.34605469 53.0909375 142.50460938 54.296875 142.66796875 C55.18890625 142.77753906 56.0809375 142.88710937 57 143 C56.67 144.65 56.34 146.3 56 148 C35.21 148 14.42 148 -7 148 C-6.67 146.35 -6.34 144.7 -6 143 C-5.13117187 142.90203125 -4.26234375 142.8040625 -3.3671875 142.703125 C5.65361152 141.77363769 5.65361152 141.77363769 13 137 C19.16359694 127.21341071 22.17245813 115.9076659 25.48901367 104.93579102 C26.44046181 101.80274699 27.4214271 98.67994975 28.40429688 95.55664062 C29.02003646 93.54482309 29.63403044 91.53247028 30.24609375 89.51953125 C30.53866562 88.59743362 30.83123749 87.675336 31.13267517 86.72529602 C34.20032976 76.36411258 31.76735443 68.36710756 28.578125 58.28125 C28.2362616 57.1833313 27.89439819 56.0854126 27.54217529 54.95422363 C26.82001125 52.64347936 26.09363667 50.33404722 25.36328125 48.02587891 C24.25468002 44.5148221 23.16562002 40.99811201 22.078125 37.48046875 C21.37096518 35.22619404 20.66266922 32.97227535 19.953125 30.71875 C19.47156952 29.15743347 19.47156952 29.15743347 18.98028564 27.5645752 C15.59922335 16.71683176 15.59922335 16.71683176 8.625 8.0625 C5.46875555 6.78497248 2.2979995 5.84066654 -1 5 C-0.67 3.35 -0.34 1.7 0 0 Z " fill="#FFFFFF" transform="translate(860,82)"/>
<path d="M0 0 C20.13 0 40.26 0 61 0 C60.67 1.65 60.34 3.3 60 5 C58.98679687 5.15855469 57.97359375 5.31710938 56.9296875 5.48046875 C55.5779509 5.71514524 54.22639755 5.95087889 52.875 6.1875 C52.20984375 6.28869141 51.5446875 6.38988281 50.859375 6.49414062 C50.20195313 6.61337891 49.54453125 6.73261719 48.8671875 6.85546875 C47.97169189 7.00471802 47.97169189 7.00471802 47.05810547 7.15698242 C43.02796158 8.80776378 40.00141293 11.09321992 37.97845459 14.94511414 C37.01505287 17.45293097 36.20978963 19.97475887 35.43359375 22.546875 C35.10951035 23.56779236 34.78542694 24.58870972 34.45152283 25.64056396 C33.26928647 29.41779487 32.12936829 33.20673019 31 37 C30.77033791 37.76915741 30.54067581 38.53831482 30.30405426 39.33078003 C26.43777763 52.29351204 22.66989004 65.28436058 18.91992188 78.28112793 C17.76496412 82.28023493 16.60578063 86.27811141 15.44641972 90.27594376 C13.05378931 98.52678535 10.66368723 106.77836501 8.28149414 115.03222656 C8.06388931 115.78430389 7.84628448 116.53638123 7.62208557 117.31124878 C5.83296181 123.51818324 4.48624314 128.52666361 5 135 C7.22970629 137.34598954 8.64816717 137.95033407 11.86230469 138.40405273 C12.95446289 138.41380127 14.04662109 138.4235498 15.171875 138.43359375 C16.99356201 138.45099609 16.99356201 138.45099609 18.85205078 138.46875 C20.13837402 138.4584375 21.42469727 138.448125 22.75 138.4375 C24.71622314 138.42396484 24.71622314 138.42396484 26.72216797 138.41015625 C41.05087837 138.15457167 54.46701337 136.84964287 65 126 C68.44035741 121.60295859 71.24240242 116.84354268 74 112 C74.75124825 110.68877124 75.50254896 109.37757253 76.25390625 108.06640625 C76.83011719 107.05449219 77.40632812 106.04257813 78 105 C79.65 105 81.3 105 83 105 C82.39835872 110.40150002 81.10455509 115.18405338 79.3125 120.3046875 C79.04993408 121.06927277 78.78736816 121.83385803 78.5168457 122.62161255 C77.96504599 124.22435295 77.41023132 125.82605825 76.85253906 127.42675781 C75.99608088 129.88625458 75.14966647 132.34903872 74.3046875 134.8125 C73.76620589 136.37259645 73.22716352 137.93249949 72.6875 139.4921875 C72.43331299 140.23064911 72.17912598 140.96911072 71.91723633 141.72994995 C70.11625002 146.88374998 70.11625002 146.88374998 69 148 C67.58321089 148.09550698 66.16168759 148.12188483 64.74168396 148.12025452 C63.36390778 148.12231651 63.36390778 148.12231651 61.95829773 148.12442017 C60.43484489 148.11902725 60.43484489 148.11902725 58.88061523 148.11352539 C57.81733002 148.11367142 56.7540448 148.11381744 55.65853882 148.1139679 C52.12520342 148.11326825 48.59192 148.10547343 45.05859375 148.09765625 C42.61621632 148.09579225 40.17383851 148.09436827 37.73146057 148.09336853 C31.28865536 148.08954189 24.84587252 148.07971037 18.40307617 148.06866455 C11.83447574 148.05845356 5.2658717 148.05387158 -1.30273438 148.04882812 C-14.20183249 148.03808823 -27.10091506 148.02120104 -40 148 C-39.67 146.35 -39.34 144.7 -39 143 C-38.19175781 142.87882813 -37.38351562 142.75765625 -36.55078125 142.6328125 C-35.48214844 142.46523437 -34.41351562 142.29765625 -33.3125 142.125 C-32.25675781 141.96257812 -31.20101562 141.80015625 -30.11328125 141.6328125 C-27.10712945 141.02177537 -24.68170852 140.49349091 -22 139 C-21.27505632 137.35784322 -20.61654817 135.68585011 -20 134 C-19.64503448 133.21013199 -19.29006897 132.42026398 -18.92434692 131.60646057 C-14.61162402 121.87693205 -11.83977743 111.74308854 -8.9296875 101.52734375 C-8.36169385 99.55285168 -7.7930893 97.57853526 -7.22390747 95.60438538 C-5.73590187 90.43693527 -4.25654009 85.26704953 -2.77893066 80.09661865 C-1.2787884 74.85381897 0.23032332 69.6136027 1.73828125 64.37304688 C10.27254914 40.03661047 10.27254914 40.03661047 14.4375 15 C14.45683594 14.113125 14.47617187 13.22625 14.49609375 12.3125 C14.18675413 9.89791388 14.18675413 9.89791388 12.36328125 8.26171875 C9.48105233 6.72294199 6.98023774 6.26894664 3.75 5.8125 C2.13351562 5.57466797 2.13351562 5.57466797 0.484375 5.33203125 C-0.74539063 5.16767578 -0.74539063 5.16767578 -2 5 C-1.34 3.35 -0.68 1.7 0 0 Z " fill="#FFFFFF" transform="translate(638,82)"/>
<path d="M0 0 C20.13 0 40.26 0 61 0 C60.67 1.65 60.34 3.3 60 5 C58.97519531 5.17015625 57.95039062 5.3403125 56.89453125 5.515625 C55.53371354 5.75963369 54.17304392 6.00446928 52.8125 6.25 C51.80219727 6.41435547 51.80219727 6.41435547 50.77148438 6.58203125 C46.09820205 7.44829822 43.44452631 8.77310148 40 12 C35.48967388 19.9439302 33.24850507 29.29017603 30.7421875 38.01953125 C30.35343294 39.35480678 29.96408979 40.68991106 29.57420349 42.02485657 C28.54422972 45.55831058 27.52298839 49.09422637 26.50412369 52.63089752 C25.66039972 55.55666605 24.81233361 58.48116872 23.96432209 61.40569687 C21.87020873 68.62813886 19.78548127 75.85324877 17.7059679 83.07990646 C16.19632193 88.32409114 14.67536177 93.56493586 13.15118408 98.80491638 C12.09876162 102.42975131 11.05454147 106.05689506 10.01397705 109.68515015 C9.55083626 111.29602821 9.08486766 112.90609626 8.61590576 114.51528931 C7.98105097 116.69784516 7.35798826 118.8834155 6.73828125 121.0703125 C6.39837158 122.25383301 6.05846191 123.43735352 5.70825195 124.65673828 C4.93289081 128.31678497 4.51835737 131.27808915 5 135 C8.45190588 138.11797886 11.58751738 138.38393448 16.12109375 138.3984375 C17.29744385 138.40480225 18.47379395 138.41116699 19.68579102 138.41772461 C20.92385498 138.40362549 22.16191895 138.38952637 23.4375 138.375 C24.70198975 138.36412354 25.96647949 138.35324707 27.26928711 138.34204102 C41.64528433 138.0963371 54.29354217 136.75869657 64.953125 126.03515625 C70.2103267 119.67678392 74.05004531 112.21251466 78 105 C79.65 105 81.3 105 83 105 C82.39835872 110.40150002 81.10455509 115.18405338 79.3125 120.3046875 C79.04993408 121.06927277 78.78736816 121.83385803 78.5168457 122.62161255 C77.96504599 124.22435295 77.41023132 125.82605825 76.85253906 127.42675781 C75.99608088 129.88625458 75.14966647 132.34903872 74.3046875 134.8125 C73.76620589 136.37259645 73.22716352 137.93249949 72.6875 139.4921875 C72.43331299 140.23064911 72.17912598 140.96911072 71.91723633 141.72994995 C70.11625002 146.88374998 70.11625002 146.88374998 69 148 C67.58321089 148.09550698 66.16168759 148.12188483 64.74168396 148.12025452 C63.36390778 148.12231651 63.36390778 148.12231651 61.95829773 148.12442017 C60.43484489 148.11902725 60.43484489 148.11902725 58.88061523 148.11352539 C57.81733002 148.11367142 56.7540448 148.11381744 55.65853882 148.1139679 C52.12520342 148.11326825 48.59192 148.10547343 45.05859375 148.09765625 C42.61621632 148.09579225 40.17383851 148.09436827 37.73146057 148.09336853 C31.28865536 148.08954189 24.84587252 148.07971037 18.40307617 148.06866455 C11.83447574 148.05845356 5.2658717 148.05387158 -1.30273438 148.04882812 C-14.20183249 148.03808823 -27.10091506 148.02120104 -40 148 C-39.67 146.35 -39.34 144.7 -39 143 C-38.19175781 142.89042969 -37.38351562 142.78085938 -36.55078125 142.66796875 C-35.48214844 142.50941406 -34.41351563 142.35085937 -33.3125 142.1875 C-32.25675781 142.03667969 -31.20101563 141.88585937 -30.11328125 141.73046875 C-25.90297553 140.7426053 -23.2615609 139.86896068 -20.76171875 136.16552734 C-16.54009428 128.36376743 -14.2788842 119.78388738 -11.8125 111.3125 C-11.3117588 109.61471 -10.81060502 107.91704165 -10.30908203 106.21948242 C-8.86156332 101.30325108 -7.43109092 96.38218199 -6.00408936 91.45996094 C-5.10860812 88.37424941 -4.21032403 85.2893678 -3.31086445 82.20481396 C-1.0612599 74.48960213 1.17567251 66.77080732 3.4022522 59.04891968 C4.21209586 56.24061827 5.0250649 53.43325145 5.84066772 50.62661743 C6.81591059 47.26875416 7.7826363 43.90854168 8.74345589 40.54652405 C9.26887168 38.71491674 9.80206037 36.88554462 10.33555603 35.05627441 C14.48394061 21.65799504 14.48394061 21.65799504 14 8 C9.05 7.01 4.1 6.02 -1 5 C-0.67 3.35 -0.34 1.7 0 0 Z " fill="#FFFFFF" transform="translate(524,82)"/>
<path d="M0 0 C2.42943742 1.91067033 4.77456078 3.88001857 7.09765625 5.91796875 C7.81179688 6.52382813 8.5259375 7.1296875 9.26171875 7.75390625 C10.88364929 9.13028555 12.49244185 10.52213014 14.09765625 11.91796875 C15.41765625 11.25796875 16.73765625 10.59796875 18.09765625 9.91796875 C20.33656767 15.36923134 21.57371919 20.04987368 22.09765625 25.91796875 C11.53956969 23.99086169 11.53956969 23.99086169 7.09765625 21.91796875 C7.26265625 21.34046875 7.42765625 20.76296875 7.59765625 20.16796875 C8.24227656 17.65132506 8.24227656 17.65132506 8.09765625 13.91796875 C6.27568611 12.11136093 4.58671583 10.67172046 2.53515625 9.16796875 C1.95306396 8.73403809 1.37097168 8.30010742 0.77124023 7.85302734 C-16.12375843 -4.40690127 -35.30351641 -11.23739325 -56.37890625 -8.65625 C-70.90839647 -6.16329536 -83.51039825 -0.48174463 -94.90234375 8.91796875 C-95.70285156 9.55605469 -96.50335938 10.19414062 -97.328125 10.8515625 C-110.8687267 22.16194745 -118.63930373 38.59619513 -120.90234375 55.91796875 C-122.69005847 75.99715081 -118.95415808 95.47990492 -106.69921875 111.86328125 C-101.89023595 117.36166368 -96.45126735 122.18203046 -90.90234375 126.91796875 C-85.00447358 117.47158749 -79.39921782 107.89596638 -73.92340088 98.19863892 C-67.15397997 86.21829983 -67.15397997 86.21829983 -63.796875 81.015625 C-63.36173584 80.3354834 -62.92659668 79.6553418 -62.47827148 78.95458984 C-61.37558228 77.25673092 -60.24569494 75.57661736 -59.11328125 73.8984375 C-57.47615383 69.86899163 -58.25668837 67.86380155 -59.90234375 63.91796875 C-61.30939017 62.34341681 -62.71908313 60.77110914 -64.14526367 59.21386719 C-66.40609973 56.25973321 -68.01301823 53.07308929 -69.640625 49.74609375 C-69.98633041 49.04615799 -70.33203583 48.34622223 -70.68821716 47.62507629 C-74.19877297 40.44029461 -77.42316822 33.13854787 -80.54223633 25.77661133 C-81.48559488 23.55663579 -82.44473593 21.34387249 -83.40429688 19.13085938 C-84.01006988 17.71004233 -84.61492507 16.28883354 -85.21875 14.8671875 C-85.50504776 14.21102951 -85.79134552 13.55487152 -86.08631897 12.87882996 C-88.01683739 8.26144967 -88.01683739 8.26144967 -86.90234375 4.91796875 C-80.30670717 16.06071478 -73.80519604 27.25595312 -67.34545898 38.47802734 C-66.74161377 39.52684082 -66.13776855 40.5756543 -65.515625 41.65625 C-64.92475098 42.68443848 -64.33387695 43.71262695 -63.72509766 44.77197266 C-62.45829068 46.95842788 -61.178331 49.13729399 -59.88818359 51.31005859 C-59.24703613 52.39109863 -58.60588867 53.47213867 -57.9453125 54.5859375 C-57.36160889 55.56199951 -56.77790527 56.53806152 -56.17651367 57.54370117 C-54.90234375 59.91796875 -54.90234375 59.91796875 -54.90234375 61.91796875 C-54.13921875 61.91796875 -53.37609375 61.91796875 -52.58984375 61.91796875 C-50.69401042 61.91796875 -48.79817708 61.91796875 -46.90234375 61.91796875 C-45.93674782 61.67607315 -45.93674782 61.67607315 -44.9516449 61.42929077 C-32.60863954 58.34958213 -17.47339508 61.34718949 -5.06176758 62.94433594 C-2.28441842 63.30006781 0.4950434 63.63344051 3.27539062 63.96484375 C5.05094113 64.18491181 6.82633889 64.40621661 8.6015625 64.62890625 C9.42846085 64.72795258 10.25535919 64.8269989 11.10731506 64.92904663 C16.86683159 65.68714409 16.86683159 65.68714409 19.09765625 67.91796875 C17.84524643 67.93009903 17.84524643 67.93009903 16.5675354 67.94247437 C8.70960296 68.02032596 0.85184406 68.10758768 -7.0058651 68.20549583 C-11.04586713 68.25550082 -15.08584249 68.30183023 -19.12597656 68.33984375 C-23.02291913 68.37664383 -26.91964066 68.42298888 -30.81639481 68.47603226 C-32.30514281 68.4946044 -33.79393824 68.50970189 -35.28275681 68.52131271 C-37.36370361 68.53812744 -39.44414108 68.56714932 -41.52490234 68.59912109 C-42.71070892 68.61244476 -43.8965155 68.62576843 -45.11825562 68.63949585 C-48.04166257 68.6351408 -48.04166257 68.6351408 -49.90234375 70.91796875 C-50.89234375 70.91796875 -51.88234375 70.91796875 -52.90234375 70.91796875 C-52.79921875 71.70171875 -52.69609375 72.48546875 -52.58984375 73.29296875 C-53.32323856 81.80034854 -59.17914011 89.11110624 -64.21484375 95.73046875 C-64.80861816 96.52509521 -65.40239258 97.31972168 -66.01416016 98.13842773 C-69.43362655 102.70052225 -72.90164581 107.22495813 -76.375 111.74609375 C-77.10871826 112.70281982 -77.84243652 113.6595459 -78.59838867 114.64526367 C-80.03465376 116.51409801 -81.47611255 118.37895393 -82.9230957 120.23950195 C-83.57366943 121.08343506 -84.22424316 121.92736816 -84.89453125 122.796875 C-85.4757373 123.54525635 -86.05694336 124.2936377 -86.65576172 125.06469727 C-88.08838577 126.82230191 -88.08838577 126.82230191 -87.90234375 128.91796875 C-66.73867812 140.51295577 -46.58317918 144.47412474 -22.90234375 137.91796875 C-15.2005206 135.44707668 -8.14852389 132.18431577 -1.14453125 128.15234375 C1.09765625 126.91796875 1.09765625 126.91796875 4.09765625 125.91796875 C0.65329769 133.82472288 -7.99549162 137.31389657 -15.5 140.59765625 C-36.7967658 148.86207283 -61.97160673 147.58370653 -82.90234375 138.91796875 C-91.45774724 134.9722821 -98.85883487 130.16362884 -105.90234375 123.91796875 C-106.85560547 123.08845703 -106.85560547 123.08845703 -107.828125 122.2421875 C-121.05425581 109.95449613 -128.36388833 90.93203151 -129.2890625 73.15234375 C-129.92525278 51.20115006 -125.45597367 30.98503893 -110.90234375 13.91796875 C-110.49113281 13.36496094 -110.07992188 12.81195313 -109.65625 12.2421875 C-98.57253108 -2.06469004 -81.0500421 -10.00863164 -63.90234375 -14.08203125 C-63.15339844 -14.2728125 -62.40445313 -14.46359375 -61.6328125 -14.66015625 C-39.62134575 -18.06106957 -18.02262386 -12.92874632 0 0 Z " fill="#FFFFFF" transform="translate(411.90234375,283.08203125)"/>
<path d="M0 0 C0.73270615 0.00161133 1.46541229 0.00322266 2.22032166 0.00488281 C11.51419172 0.20421384 20.41625351 2.31072252 29.44140625 4.375 C31.19430309 4.76204326 32.94755801 5.1474685 34.70117188 5.53125 C38.93142502 6.46064951 43.15629202 7.41151494 47.37890625 8.375 C47.87390625 10.85 47.87390625 10.85 48.37890625 13.375 C49.00796875 13.32859375 49.63703125 13.2821875 50.28515625 13.234375 C57.71672347 12.92099566 62.71237939 14.0533816 68.2890625 19.10546875 C74.34075609 25.54262053 77.63134011 32.59109787 78.37890625 41.375 C77.76015625 40.88 77.14140625 40.385 76.50390625 39.875 C74.54009721 38.18277227 74.54009721 38.18277227 72.37890625 38.375 C71.76015625 37.59125 71.14140625 36.8075 70.50390625 36 C67.442661 32.21846175 65.75887999 31.52554259 60.94140625 31 C56.59990616 31.45700001 55.29525953 32.14336529 52.37890625 35.375 C46.75681068 45.69164002 45.38782346 57.94536147 48.09765625 69.41796875 C49.93662905 73.84485085 52.11145932 77.00419615 56.37890625 79.375 C59.35203072 80.24090999 62.32513116 80.86936404 65.37890625 81.375 C61.39160959 83.70701984 58.48390819 83.6810032 53.98046875 83.08984375 C48.3753703 81.54970409 44.98997382 77.987296 41.99609375 73.1328125 C37.43031085 62.88374738 37.82717594 49.23634703 41.00390625 38.625 C43.41643566 32.55969719 46.35886787 27.85289112 52.31640625 24.9375 C57.86116847 23.91907429 62.25253407 23.88948622 67.37890625 26.375 C63.00159778 21.76108027 60.46197712 20.23055635 54.12890625 20.0625 C48.85768191 20.13889456 45.35202389 20.84002064 41.37890625 24.375 C32.57494686 33.59522224 30.95079541 45.14118171 31.16796875 57.453125 C31.71328855 67.59203387 34.56294856 77.91152459 42.18359375 85.0703125 C47.42290398 89.00541675 51.9131669 89.91381161 58.37890625 89.375 C63.8533553 87.42664676 68.0981757 84.22765749 72.37890625 80.375 C73.03890625 80.705 73.69890625 81.035 74.37890625 81.375 C65.01388078 93.83000849 65.01388078 93.83000849 57.37890625 96.375 C49.63584881 97.34090287 42.6770281 95.52139211 36.3671875 90.90234375 C26.97770723 82.28683365 24.03257256 69.94429668 23.09375 57.63671875 C22.91110626 49.98950494 23.79628663 43.01461585 25.625 35.59375 C25.87378906 34.5315625 26.12257813 33.469375 26.37890625 32.375 C26.65863281 31.1890625 26.93835938 30.003125 27.2265625 28.78125 C27.68586806 25.36877299 27.68586806 25.36877299 25.88037109 22.78613281 C22.69545921 19.71623336 19.72454031 19.10862609 15.5078125 18.390625 C14.74846909 18.2446991 13.98912567 18.09877319 13.20677185 17.94842529 C10.78812361 17.48810898 8.36540049 17.05617854 5.94140625 16.625 C4.31540374 16.32088361 2.68974691 16.01491277 1.06445312 15.70703125 C-1.92307351 15.14374851 -4.91212111 14.59114312 -7.90405273 14.05175781 C-10.81683663 13.52143026 -13.7206952 12.96846453 -16.62109375 12.375 C-25.71214347 24.80358579 -27.17954963 36.42079267 -26.62109375 51.375 C-25.96109375 51.375 -25.30109375 51.375 -24.62109375 51.375 C-24.62109375 49.395 -24.62109375 47.415 -24.62109375 45.375 C-22.66406816 48.31053838 -22.25536877 49.54259043 -21.76953125 52.90234375 C-21.640625 53.77697266 -21.51171875 54.65160156 -21.37890625 55.55273438 C-21.25257813 56.46345703 -21.12625 57.37417969 -20.99609375 58.3125 C-20.86203125 59.21935547 -20.72796875 60.12621094 -20.58984375 61.06054688 C-20.03575148 64.90244175 -19.62109375 68.48042947 -19.62109375 72.375 C-18.94046875 72.47296875 -18.25984375 72.5709375 -17.55859375 72.671875 C-8.75736893 74.02951074 -0.2265568 76.12534849 8.37890625 78.375 C8.56066406 77.34052734 8.56066406 77.34052734 8.74609375 76.28515625 C9.58173601 71.59913158 10.432383 66.91500743 11.37890625 62.25 C11.52328125 61.52554688 11.66765625 60.80109375 11.81640625 60.0546875 C12.37890625 58.375 12.37890625 58.375 14.37890625 57.375 C14.37890625 66.945 14.37890625 76.515 14.37890625 86.375 C2.00390625 84.125 2.00390625 84.125 -2.30859375 82.75 C-3.13746094 82.48960937 -3.96632813 82.22921875 -4.8203125 81.9609375 C-5.41457031 81.76757812 -6.00882813 81.57421875 -6.62109375 81.375 C-6.51796875 82.303125 -6.41484375 83.23125 -6.30859375 84.1875 C-6.62109375 87.375 -6.62109375 87.375 -8.87109375 89.3125 C-11.93131735 90.49485912 -12.64372629 90.5027907 -15.62109375 89.375 C-17.54296875 87.81640625 -17.54296875 87.81640625 -19.37109375 85.9375 C-19.9846875 85.32003906 -20.59828125 84.70257813 -21.23046875 84.06640625 C-22.62109375 82.375 -22.62109375 82.375 -22.62109375 80.375 C-19.65109375 81.035 -16.68109375 81.695 -13.62109375 82.375 C-13.62109375 81.715 -13.62109375 81.055 -13.62109375 80.375 C-17.58109375 79.715 -21.54109375 79.055 -25.62109375 78.375 C-25.53859375 76.869375 -25.45609375 75.36375 -25.37109375 73.8125 C-25.37109375 68.53177485 -26.63979657 65.61371503 -29.62109375 61.375 C-35.94320616 51.51994242 -36.74935147 41.27944976 -34.43359375 29.9375 C-31.63189679 18.6128838 -25.76410964 9.53313262 -15.74609375 3.41796875 C-10.56464026 0.87486566 -5.73379731 -0.0135264 0 0 Z M-5.62109375 5.375 C-5.29109375 6.035 -4.96109375 6.695 -4.62109375 7.375 C-2.59403753 7.93832266 -2.59403753 7.93832266 -0.140625 8.2265625 C0.77654297 8.35546875 1.69371094 8.484375 2.63867188 8.6171875 C4.08790039 8.80667969 4.08790039 8.80667969 5.56640625 9 C6.51322266 9.1340625 7.46003906 9.268125 8.43554688 9.40625 C13.11519677 10.04631377 17.64340602 10.55009413 22.37890625 10.375 C22.37890625 10.045 22.37890625 9.715 22.37890625 9.375 C17.09890625 8.385 11.81890625 7.395 6.37890625 6.375 C7.36890625 5.715 8.35890625 5.055 9.37890625 4.375 C3.81733177 3.46042997 -0.29675875 3.05413603 -5.62109375 5.375 Z M-14.62109375 10.375 C-14.62109375 10.705 -14.62109375 11.035 -14.62109375 11.375 C-13.37497314 11.53057373 -12.12885254 11.68614746 -10.8449707 11.84643555 C-6.21084641 12.43072673 -1.58078438 13.04305956 3.04858398 13.66381836 C5.05051946 13.92829216 7.05346881 14.18520805 9.05737305 14.43432617 C11.94230915 14.79431696 14.82247366 15.18157869 17.703125 15.57421875 C18.5960173 15.679655 19.48890961 15.78509125 20.40885925 15.89372253 C26.07851598 16.70148991 28.78921939 17.8530951 32.37890625 22.375 C31.76613013 19.41324877 31.12518103 17.99441217 29.37890625 15.375 C26.37913357 14.30367779 26.37913357 14.30367779 22.796875 13.55078125 C21.82008537 13.32409004 21.82008537 13.32409004 20.82356262 13.09281921 C19.44543796 12.77551981 18.06596227 12.46404026 16.68530273 12.15795898 C14.58183491 11.69092563 12.48329072 11.205508 10.38476562 10.71679688 C2.47107424 8.8151484 2.47107424 8.8151484 -5.62109375 8.375 C-5.62109375 7.715 -5.62109375 7.055 -5.62109375 6.375 C-9.63583612 6.375 -11.44084512 8.04281767 -14.62109375 10.375 Z M22.37890625 10.375 C22.37890625 10.705 22.37890625 11.035 22.37890625 11.375 C24.02890625 11.375 25.67890625 11.375 27.37890625 11.375 C27.37890625 11.045 27.37890625 10.715 27.37890625 10.375 C25.72890625 10.375 24.07890625 10.375 22.37890625 10.375 Z M28.37890625 11.375 C32.37890625 12.375 32.37890625 12.375 32.37890625 12.375 Z M40.37890625 11.375 C40.70890625 12.365 41.03890625 13.355 41.37890625 14.375 C42.36890625 14.375 43.35890625 14.375 44.37890625 14.375 C44.04890625 13.385 43.71890625 12.395 43.37890625 11.375 C42.38890625 11.375 41.39890625 11.375 40.37890625 11.375 Z M34.37890625 13.375 C34.70890625 14.365 35.03890625 15.355 35.37890625 16.375 C35.37890625 15.385 35.37890625 14.395 35.37890625 13.375 C35.04890625 13.375 34.71890625 13.375 34.37890625 13.375 Z " fill="#FFFFFF" transform="translate(558.62109375,300.625)"/>
<path d="M0 0 C4.33976253 3.31054392 8.25277541 6.91322741 11.9375 10.9375 C14.4125 9.9475 14.4125 9.9475 16.9375 8.9375 C19.01885307 14.23548964 20.65041613 19.39313871 21.9375 24.9375 C16.06940493 24.41356294 11.38876259 23.17641142 5.9375 20.9375 C6.1025 20.36 6.2675 19.7825 6.4375 19.1875 C7.08212031 16.67085631 7.08212031 16.67085631 6.9375 12.9375 C5.11552986 11.13089218 3.42655958 9.69125171 1.375 8.1875 C0.79290771 7.75356934 0.21081543 7.31963867 -0.38891602 6.87255859 C-17.25432249 -5.36589633 -36.55943371 -12.33712756 -57.609375 -9.6015625 C-77.48049993 -6.09731848 -96.73234012 4.2289936 -108.8125 20.75 C-121.10110225 39.60216156 -125.12948058 60.2604087 -120.875 82.4375 C-116.04251122 101.61011829 -105.39883202 117.56140921 -88.75 128.3125 C-69.44138344 139.42537284 -49.39881538 142.89498025 -27.58984375 137.9140625 C-18.57474248 135.41818729 -10.40191498 131.83318696 -2.3046875 127.171875 C-0.0625 125.9375 -0.0625 125.9375 2.9375 124.9375 C-0.50685856 132.84425413 -9.15564787 136.33342782 -16.66015625 139.6171875 C-37.28620629 147.62132632 -63.71130522 147.00468334 -83.96630859 138.10058594 C-102.91098223 129.16146798 -118.45080236 114.96197702 -125.77392578 94.99804688 C-133.00890957 73.16538667 -132.42380784 49.0834864 -122.1875 28.375 C-119.27917302 22.82207677 -116.29223912 17.58313397 -112.0625 12.9375 C-111.6284082 12.45716309 -111.19431641 11.97682617 -110.74707031 11.48193359 C-81.18201727 -20.80698172 -35.62599704 -25.06473836 0 0 Z " fill="#FFFFFF" transform="translate(847.0625,284.0625)"/>
<path d="M0 0 C2.42943742 1.91067033 4.77456078 3.88001857 7.09765625 5.91796875 C7.81179688 6.52382813 8.5259375 7.1296875 9.26171875 7.75390625 C10.88364929 9.13028555 12.49244185 10.52213014 14.09765625 11.91796875 C15.41765625 11.25796875 16.73765625 10.59796875 18.09765625 9.91796875 C20.33656767 15.36923134 21.57371919 20.04987368 22.09765625 25.91796875 C11.53956969 23.99086169 11.53956969 23.99086169 7.09765625 21.91796875 C7.26265625 21.34046875 7.42765625 20.76296875 7.59765625 20.16796875 C8.24227656 17.65132506 8.24227656 17.65132506 8.09765625 13.91796875 C6.27568611 12.11136093 4.58671583 10.67172046 2.53515625 9.16796875 C1.95306396 8.73403809 1.37097168 8.30010742 0.77124023 7.85302734 C-16.12375843 -4.40690127 -35.30351641 -11.23739325 -56.37890625 -8.65625 C-70.90839647 -6.16329536 -83.51039825 -0.48174463 -94.90234375 8.91796875 C-95.70285156 9.55605469 -96.50335937 10.19414062 -97.328125 10.8515625 C-110.8687267 22.16194745 -118.63930373 38.59619513 -120.90234375 55.91796875 C-122.69005847 75.99715081 -118.95415808 95.47990492 -106.69921875 111.86328125 C-104.53049587 114.34290497 -102.28383531 116.64323371 -99.90234375 118.91796875 C-98.87367188 119.95824219 -98.87367188 119.95824219 -97.82421875 121.01953125 C-82.76774314 135.46259489 -63.13319316 141.41906479 -42.64453125 141.1328125 C-27.70030038 140.64714008 -13.999883 135.55275396 -1.14453125 128.15234375 C1.09765625 126.91796875 1.09765625 126.91796875 4.09765625 125.91796875 C0.65329769 133.82472288 -7.99549162 137.31389657 -15.5 140.59765625 C-36.12605004 148.60179507 -62.55114897 147.98515209 -82.80615234 139.08105469 C-91.31919396 135.06414288 -98.88431032 130.23034983 -105.90234375 123.91796875 C-106.53527344 123.36625 -107.16820312 122.81453125 -107.8203125 122.24609375 C-121.37390636 109.67984779 -128.31020236 90.45301711 -129.2890625 72.30859375 C-129.92740858 51.22910502 -125.54911235 30.00490079 -110.90234375 13.91796875 C-110.46825195 13.43763184 -110.03416016 12.95729492 -109.58691406 12.46240234 C-81.04540472 -18.70866901 -34.85092445 -25.00073046 0 0 Z " fill="#FFFFFF" transform="translate(628.90234375,283.08203125)"/>
<path d="M0 0 C1.20896018 3.62688053 0.69157174 4.49243452 -0.66015625 7.98046875 C-1.22839111 9.46764404 -1.22839111 9.46764404 -1.80810547 10.98486328 C-2.22205566 12.0417334 -2.63600586 13.09860352 -3.0625 14.1875 C-3.4764502 15.27015137 -3.89040039 16.35280273 -4.31689453 17.46826172 C-6.13001302 22.20630999 -7.97179036 26.93262878 -9.83203125 31.65234375 C-17.05106985 50.03975911 -17.05106985 50.03975911 -15.2421875 69.21484375 C-13.0756237 74.10326712 -10.35644158 76.94122187 -6 80 C-0.8328841 81.72237197 4.10599758 81.65561622 9.25 79.875 C15.62911013 75.52560673 18.34324384 70.39168131 20 63 C21.63037292 49.49119581 14.20109645 34.75794784 9.3125 22.4375 C8.41834398 20.17635188 7.52674481 17.91433055 6.64213562 15.64942932 C6.09807833 14.25698644 5.54864008 12.86662882 4.99275208 11.47886658 C3.50075349 7.66664295 2.52125156 4.0607494 2 0 C5.16718878 2.68142363 6.77773724 6.11794455 8.625 9.75 C11.40472414 15.1022679 14.3385521 20.30211153 17.5 25.4375 C20.70417965 30.68461298 23.66706127 36.01087658 26.4375 41.5 C26.9325 42.46957642 26.9325 42.46957642 27.4375 43.45874023 C32.29446722 53.26539397 33.53032589 62.08319504 30.03125 72.515625 C26.66505747 80.62508882 21.85021689 86.00947308 14 90 C6.09738096 93.10765154 -2.44913562 93.29756203 -10.4375 90.3125 C-19.23892243 86.2032737 -24.39910659 79.76944861 -27.85546875 70.7734375 C-31.39815646 57.69640231 -26.27237485 45.85819667 -20.10546875 34.51538086 C-18.11047988 31.08833822 -16.06956375 27.69499187 -14 24.3125 C-12.62138628 22.03992123 -11.24813913 19.76418075 -9.875 17.48828125 C-9.22273437 16.40756348 -8.57046875 15.3268457 -7.8984375 14.21337891 C-5.13927866 9.54310516 -2.54764244 4.78828914 0 0 Z " fill="#FFFFFF" transform="translate(795,296)"/>
<path d="M0 0 C0.33 0 0.66 0 1 0 C1.02578125 0.89460938 1.0515625 1.78921875 1.078125 2.7109375 C1.61956139 14.25337689 3.61125832 22.53197496 11.73828125 31.01953125 C18.55222747 36.98614737 26.01737744 39.22390701 35 39 C43.51787808 38.21437047 49.91420877 34.45870566 55.75 28.3125 C62.74989022 19.73044281 63.68812578 10.82203534 64 0 C67.18774032 3.18774032 66.96716707 6.3433415 67.1875 10.75 C66.9811488 21.74851916 62.69270962 31.12839016 55 39 C45.38588601 46.18066605 35.65273615 47.13338802 24 46 C15.27566416 43.98761867 8.6169527 37.61720921 3.625 30.4375 C-2.03583682 21.32493341 -2.87299428 12.16851842 -0.47265625 1.8359375 C-0.31667969 1.23007812 -0.16070313 0.62421875 0 0 Z " fill="#FFFFFF" transform="translate(764,350)"/>
<path d="M0 0 C2.96303011 0.51951191 5.87684774 1.1027652 8.8125 1.75 C10.09906494 2.0291626 10.09906494 2.0291626 11.41162109 2.31396484 C13.94298265 2.86777446 16.47178145 3.43203348 19 4 C20.92779297 4.42925781 20.92779297 4.42925781 22.89453125 4.8671875 C28.92318444 6.28140602 28.92318444 6.28140602 31 7 C32.52846661 10.05693322 32.23242445 12.62984547 32 16 C30.484375 18.2265625 30.484375 18.2265625 29 20 C1.98170732 13.98170732 1.98170732 13.98170732 -1 11 C-1.09823937 9.33570949 -1.12973631 7.66718069 -1.125 6 C-1.12757813 5.0925 -1.13015625 4.185 -1.1328125 3.25 C-1 1 -1 1 0 0 Z " fill="#FFFFFF" transform="translate(614,349)"/>
<path d="M0 0 C8.04469164 1.26730834 15.9840906 2.81897726 23.9375 4.5625 C32.31086466 6.36059311 40.41455337 7.81554704 49 8 C48 10 48 10 46.15234375 10.6328125 C45.42144531 10.79523438 44.69054687 10.95765625 43.9375 11.125 C43.20402344 11.29257812 42.47054687 11.46015625 41.71484375 11.6328125 C41.14894531 11.75398438 40.58304688 11.87515625 40 12 C42.64 12.33 45.28 12.66 48 13 C46.58231844 15.83536313 44.40829249 16.24902647 41.59375 17.4140625 C32.58471735 19.44923554 24.98849612 16.75995727 16.55859375 13.83740234 C14.48175254 13.11868524 12.39812387 12.42323567 10.3125 11.73046875 C0.14459607 8.28919215 0.14459607 8.28919215 -1 6 C8.86675685 6.64700045 18.3678065 8.87379712 28 11 C27.18732666 10.73783691 26.37465332 10.47567383 25.53735352 10.20556641 C22.52933716 9.23126299 19.52361193 8.25027048 16.51928711 7.26464844 C15.21743458 6.83908966 13.91469816 6.41622513 12.61108398 5.99609375 C10.73973238 5.39247787 8.87175822 4.7784223 7.00390625 4.1640625 C5.87799072 3.79748535 4.7520752 3.4309082 3.59204102 3.05322266 C1 2 1 2 0 0 Z " fill="#FFFFFF" transform="translate(534,331)"/>
<path d="M0 0 C6.92442618 0.66821966 13.4556294 2.28380508 20.1875 4 C28.12807638 5.98268598 35.6323129 7.6643173 43.83984375 7.796875 C46 8 46 8 48 10 C46.50497381 10.51468115 45.00358371 11.01088241 43.5 11.5 C42.6646875 11.7784375 41.829375 12.056875 40.96875 12.34375 C34.22622856 13.83420211 29.0535375 13.02030733 22.65625 10.59375 C22.00168823 10.34959351 21.34712646 10.10543701 20.67272949 9.85388184 C18.61032044 9.08141949 16.55530866 8.29113454 14.5 7.5 C13.09159798 6.96885161 11.68274685 6.4388925 10.2734375 5.91015625 C6.84366417 4.62046257 3.42027499 3.31470793 0 2 C0 1.34 0 0.68 0 0 Z " fill="#FFFFFF" transform="translate(536,324)"/>
<path d="M0 0 C0.66 0 1.32 0 2 0 C2.61875 0.94875 3.2375 1.8975 3.875 2.875 C6.02429464 6.03572741 6.59167162 6.72629943 10 8 C12.0742625 8.28480806 14.16071439 8.48874224 16.25 8.625 C17.32765625 8.69976562 18.4053125 8.77453125 19.515625 8.8515625 C20.33546875 8.90054687 21.1553125 8.94953125 22 9 C21 12 21 12 19.2734375 13.171875 C13.19031771 15.38771932 5.84436238 14.52729184 0 12 C0 8.04 0 4.08 0 0 Z " fill="#FFFFFF" transform="translate(566,387)"/>
<path d="M0 0 C1.9453125 0.109375 1.9453125 0.109375 4 1 C5.0546875 3.328125 5.0546875 3.328125 5.875 6.25 C7.61940554 11.61579143 9.32552092 13.91909333 14 17 C13.67 18.32 13.34 19.64 13 21 C9.94531228 21.30494301 8.50860395 21.40158308 6.05078125 19.4609375 C1.10747782 13.52897338 -1.55596346 8.96880957 -1 1 C-0.67 0.67 -0.34 0.34 0 0 Z " fill="#FFFFFF" transform="translate(782,353)"/>
</svg>
